<svg width="16" height="20" viewBox="0 0 16 20" fill="none" xmlns="http://www.w3.org/2000/svg">
<g clip-path="url(#clip0)">
<path d="M15.5887 9.5996L7.2105 0.685948C7.03176 0.496978 6.78228 0.390015 6.5179 0.390015L0.932444 0.390015C0.565666 0.390015 0.232401 0.596811 0.0815933 0.917703C-0.0673521 1.24038 -0.00591214 1.61653 0.239848 1.87681L8.05762 10.195L0.239848 18.5115C-0.00591214 18.7735 -0.069214 19.1497 0.0815933 19.4706C0.232401 19.7932 0.565666 20 0.932444 20H6.5179C6.78228 20 7.03176 19.8913 7.2105 19.7059L15.5887 10.7922C15.907 10.4535 15.907 9.93653 15.5887 9.5996Z" fill="white"/>
</g>
<defs>
<clipPath id="clip0">
<rect width="16" height="20" fill="white" transform="translate(0.000488281)"/>
</clipPath>
</defs>
</svg>
