<svg width="34" height="45" viewBox="0 0 34 45" fill="none" xmlns="http://www.w3.org/2000/svg">
<g clip-path="url(#clip0)">
<path d="M33.1249 20.8111L15.3213 1.0293C14.9415 0.609927 14.4113 0.372546 13.8495 0.372546L1.98041 0.372544C1.201 0.372544 0.492814 0.831482 0.172348 1.54363C-0.144161 2.25973 -0.0136014 3.09452 0.508639 3.67215L17.1214 22.1325L0.508632 40.589C-0.013608 41.1706 -0.148125 42.0054 0.172341 42.7175C0.492806 43.4336 1.201 43.8925 1.9804 43.8925L13.8495 43.8925C14.4113 43.8925 14.9414 43.6512 15.3213 43.2397L33.1249 23.4579C33.8014 22.7062 33.8014 21.5589 33.1249 20.8111Z" fill="#514947"/>
</g>
<defs>
<clipPath id="clip0">
<rect width="34" height="44.3855" fill="white"/>
</clipPath>
</defs>
</svg>
