<svg width="64" height="64" viewBox="0 0 64 64" fill="none" xmlns="http://www.w3.org/2000/svg">
<g clip-path="url(#clip0)">
<path d="M0 19.3127V58.6594C0 61.606 2.38538 63.9927 5.33337 63.9927H58.6668C61.6121 63.9927 64.0001 61.6061 64.0001 58.6594V19.3127H0Z" fill="#F2F2F2"/>
<path d="M15.2617 30.1566H24.6791V53.4166H19.6897V34.5834H15.2617V30.1566Z" fill="#514947"/>
<path d="M39.1213 53.6834C35.9053 53.6834 33.4987 52.5914 31.8999 50.406C30.3039 48.2206 29.5039 45.3034 29.5039 41.654C29.5039 38.0074 30.3039 35.086 31.8999 32.902C33.4985 30.7194 35.9053 29.6246 39.1213 29.6246C42.3373 29.6246 44.7467 30.7193 46.3427 32.902C47.9413 35.0874 48.7387 38.0074 48.7387 41.654C48.7387 45.3034 47.9413 48.222 46.3427 50.406C44.7467 52.59 42.3373 53.6834 39.1213 53.6834ZM35.6947 36.046C34.9627 37.4646 34.596 39.3406 34.596 41.67C34.596 43.9966 34.9627 45.874 35.6947 47.294C36.4267 48.714 37.5693 49.4246 39.1213 49.4246C40.6733 49.4246 41.8159 48.714 42.5507 47.294C43.2827 45.8754 43.6467 43.9966 43.6467 41.67C43.6467 39.3406 43.2827 37.466 42.5507 36.046C41.816 34.6286 40.6733 33.914 39.1213 33.914C37.5693 33.914 36.4253 34.6286 35.6947 36.046Z" fill="#514947"/>
<path d="M58.6666 3.802H5.33337C2.388 3.802 0 6.19 0 9.13538V19.3208H64V9.13538C64 6.19 61.612 3.802 58.6666 3.802Z" fill="#C93E20"/>
<path d="M55.5323 11.5593C55.5323 13.6433 53.8443 15.3326 51.7589 15.3326C49.6749 15.3326 47.9883 13.6433 47.9883 11.5593C47.9883 9.47526 49.6763 7.78589 51.7589 7.78589C53.8443 7.78589 55.5323 9.47526 55.5323 11.5593Z" fill="white"/>
<path d="M16.0245 11.5593C16.0245 13.6433 14.3338 15.3326 12.2511 15.3326C10.1683 15.3326 8.48047 13.6433 8.48047 11.5593C8.48047 9.47526 10.1685 7.78589 12.2511 7.78589C14.3337 7.78589 16.0245 9.47526 16.0245 11.5593Z" fill="white"/>
<path d="M51.7914 0.00732422C50.4061 0.00732422 49.2808 1.12995 49.2808 2.51795L49.2422 10.6566C49.2422 12.0432 50.3676 13.1672 51.7556 13.1672C53.1409 13.1672 54.2662 12.0432 54.2662 10.6566L54.3048 2.51795C54.3048 1.12995 53.1794 0.00732422 51.7914 0.00732422Z" fill="#514947"/>
<path d="M12.2875 0.00732422C10.9022 0.00732422 9.77691 1.12995 9.77691 2.51795L9.73828 10.6553C9.73828 12.0419 10.8637 13.1659 12.2489 13.1659C13.6369 13.1659 14.7595 12.0419 14.7595 10.6553L14.7982 2.5167C14.7983 1.12995 13.6755 0.00732422 12.2875 0.00732422Z" fill="#514947"/>
</g>
<defs>
<clipPath id="clip0">
<rect width="64" height="64" fill="white"/>
</clipPath>
</defs>
</svg>
