<svg width="16" height="12" viewBox="0 0 16 12" fill="none" xmlns="http://www.w3.org/2000/svg">
<path d="M15.7419 1.53387L14.5511 0.343131C14.3779 0.169993 14.1722 0.0834045 13.934 0.0834045C13.6961 0.0834045 13.4902 0.169993 13.3171 0.343131L6.31403 7.34618L3.46755 4.49951C3.29433 4.32626 3.08863 4.23978 2.85059 4.23978C2.61251 4.23978 2.40688 4.32626 2.23363 4.49951L1.04304 5.69009C0.869867 5.86327 0.783203 6.06897 0.783203 6.30717C0.783203 6.54525 0.869867 6.75087 1.04304 6.92412L5.69723 11.5783C5.87044 11.7516 6.07614 11.838 6.31418 11.838C6.55223 11.838 6.75789 11.7516 6.93114 11.5783L15.7417 2.76775C15.9148 2.59461 16.0016 2.38887 16.0016 2.15079C16.0016 1.91271 15.915 1.70701 15.7419 1.53387Z" fill="white"/>
</svg>
