<svg width="53" height="53" viewBox="0 0 53 53" fill="none" xmlns="http://www.w3.org/2000/svg">
<path d="M46.375 30.0207C45.9177 30.0207 45.5469 30.3716 45.5469 30.8045V36.2962H44.2293C43.9046 33.5778 41.313 31.6234 38.4408 31.9306C36.0159 32.19 34.1023 34.0012 33.8281 36.2962H16.5625V13.5675H45.5469V16.0324C45.5469 16.4652 45.9177 16.8161 46.375 16.8161C46.8323 16.8161 47.2031 16.4652 47.2031 16.0324V12.7837C47.2031 12.3509 46.8323 12 46.375 12H15.7344C15.277 12 14.9062 12.3509 14.9062 12.7837V13.5675H5.42256C3.34366 13.57 1.65894 15.1644 1.65625 17.132V18.27C1.65625 18.7028 2.02704 19.0537 2.48438 19.0537H3.44748L2.81563 26.2368C1.16196 26.6441 0.00579688 28.0547 0 29.6719V36.2962C0 36.729 0.370793 37.0799 0.828125 37.0799H2.50508C2.73209 39.8826 5.31687 41.9805 8.27825 41.7657C10.9241 41.5737 13.0264 39.584 13.2293 37.0799C13.2368 37.0799 13.2425 37.0838 13.25 37.0838H14.9062C14.9062 37.5167 15.277 37.8676 15.7344 37.8676H33.9034C34.4934 40.5465 37.2663 42.2656 40.097 41.7073C42.1359 41.3051 43.729 39.7973 44.154 37.8676H46.375C46.8323 37.8676 47.2031 37.5167 47.2031 37.0838V30.8045C47.2031 30.3715 46.8323 30.0207 46.375 30.0207ZM7.86719 40.2149C5.80909 40.2149 4.14062 38.6359 4.14062 36.6881C4.14062 34.7402 5.80909 33.1612 7.86719 33.1612C9.92529 33.1612 11.5938 34.7402 11.5938 36.6881C11.5915 38.635 9.92435 40.2128 7.86719 40.2149ZM14.9062 35.5124H13.25C13.2015 35.5172 13.1534 35.5263 13.1067 35.5399C12.4407 32.8014 9.55511 31.0924 6.66164 31.7227C4.66648 32.1573 3.10537 33.6266 2.63509 35.5124H1.65625V29.6719C1.6576 28.5696 2.60155 27.6762 3.76631 27.675H14.9062V35.5124ZM14.9062 26.1075H4.48844L5.10953 19.0537H14.9062V26.1075ZM14.9062 17.4862H3.3125V17.132C3.31385 16.0296 4.2578 15.1363 5.42256 15.135H14.9062V17.4862ZM42.6024 37.0486C42.496 38.8416 40.927 40.243 39.0295 40.24H39.0287C37.2912 40.2364 35.8076 39.052 35.5108 37.4318C35.656 37.1918 35.6394 36.8936 35.4686 36.6692C35.5793 34.8049 37.2659 33.3784 39.2359 33.4831C41.2058 33.5878 42.7131 35.1841 42.6024 37.0486Z" fill="white"/>
<path d="M45.5469 18.2699H33.9531C33.4958 18.2699 33.125 18.6208 33.125 19.0536C33.125 19.4865 33.4958 19.8374 33.9531 19.8374H45.5469C46.0042 19.8374 46.375 19.4865 46.375 19.0536C46.375 18.6208 46.0042 18.2699 45.5469 18.2699Z" fill="white"/>
<path d="M47.2031 26.8913H28.9844C28.527 26.8913 28.1562 27.2422 28.1562 27.6751C28.1562 28.1079 28.527 28.4588 28.9844 28.4588H47.2031C47.6605 28.4588 48.0312 28.1079 48.0312 27.6751C48.0312 27.2422 47.6605 26.8913 47.2031 26.8913Z" fill="white"/>
<path d="M45.5469 22.189H36.4375C35.9802 22.189 35.6094 22.5399 35.6094 22.9727C35.6094 23.4055 35.9802 23.7564 36.4375 23.7564H45.5469C46.0042 23.7564 46.375 23.4055 46.375 22.9727C46.375 22.5399 46.0042 22.189 45.5469 22.189Z" fill="white"/>
<path d="M48.8594 19.8374H50.5156C50.973 19.8374 51.3438 19.4865 51.3438 19.0536C51.3438 18.6208 50.973 18.2699 50.5156 18.2699H48.8594C48.402 18.2699 48.0312 18.6208 48.0312 19.0536C48.0312 19.4865 48.402 19.8374 48.8594 19.8374Z" fill="white"/>
<path d="M51.3438 26.8913H49.6875C49.2302 26.8913 48.8594 27.2422 48.8594 27.6751C48.8594 28.1079 49.2302 28.4588 49.6875 28.4588H51.3438C51.8011 28.4588 52.1719 28.1079 52.1719 27.6751C52.1719 27.2422 51.8011 26.8913 51.3438 26.8913Z" fill="white"/>
<path d="M52.1719 22.189H48.8594C48.402 22.189 48.0312 22.5399 48.0312 22.9727C48.0312 23.4055 48.402 23.7564 48.8594 23.7564H52.1719C52.6292 23.7564 53 23.4055 53 22.9727C53 22.5399 52.6292 22.189 52.1719 22.189Z" fill="white"/>
</svg>
