<svg width="18" height="18" viewBox="0 0 18 18" fill="none" xmlns="http://www.w3.org/2000/svg">
<g clip-path="url(#clip0)">
<path d="M9 13.1953C8.80583 13.1953 8.64844 13.3527 8.64844 13.5469C8.64844 13.5473 8.64844 13.5478 8.64844 13.5483C8.64844 13.5487 8.64844 13.5492 8.64844 13.5497V13.5525C8.64844 13.7467 8.80583 13.9041 9 13.9041C9.19417 13.9041 9.35156 13.7467 9.35156 13.5525C9.35156 13.552 9.35156 13.5516 9.35156 13.5511C9.35156 13.5506 9.35156 13.5502 9.35156 13.5497C9.35156 13.5492 9.35156 13.5487 9.35156 13.5483C9.35156 13.5478 9.35156 13.5473 9.35156 13.5469C9.35156 13.3527 9.19417 13.1953 9 13.1953Z" fill="#C93E20" stroke="#C93E20" stroke-width="0.5"/>
<path d="M14.5547 0H3.44531C1.54554 0 0 1.54554 0 3.44531V14.5547C0 16.4545 1.54554 18 3.44531 18H9C9.19417 18 9.35156 17.8426 9.35156 17.6484V14.9238C9.35156 14.7297 9.19417 14.5723 9 14.5723C8.80583 14.5723 8.64844 14.7297 8.64844 14.9238V17.2969H3.44531C1.93328 17.2969 0.703125 16.0667 0.703125 14.5547V3.44531C0.703125 1.93328 1.93328 0.703125 3.44531 0.703125H14.5547C16.0667 0.703125 17.2969 1.93328 17.2969 3.44531V14.5547C17.2969 16.0667 16.0667 17.2969 14.5547 17.2969H12.3047V11.0918H14.3431C14.5236 11.0918 14.6748 10.9551 14.6929 10.7755L14.9457 8.26337C14.9556 8.16448 14.9233 8.06604 14.8566 7.99235C14.79 7.91866 14.6952 7.87662 14.5959 7.87662H12.3047V6.55752C12.3047 6.31877 12.3807 6.23 12.5853 6.23H14.5801C14.7743 6.23 14.9317 6.07261 14.9317 5.87844V3.42946C14.9317 3.23529 14.7743 3.07789 14.5801 3.07789H11.9604C10.476 3.07789 9.68875 3.7299 9.28976 4.27686C8.73172 5.04179 8.6484 5.94517 8.6484 6.41556V7.89237H6.92575C6.73158 7.89237 6.57418 8.04976 6.57418 8.24393V10.7402C6.57418 10.9344 6.73158 11.0918 6.92575 11.0918H8.6484V12.0938C8.6484 12.2879 8.8058 12.4453 8.99996 12.4453C9.19413 12.4453 9.35153 12.2879 9.35153 12.0938V10.7402C9.35153 10.5461 9.19413 10.3887 8.99996 10.3887H7.27731V8.59546H8.99996C9.19413 8.59546 9.35153 8.43806 9.35153 8.24389V6.41552C9.35153 5.62338 9.60574 3.78098 11.9604 3.78098H14.2285V5.52684H12.5853C12.1315 5.52684 11.6016 5.79677 11.6016 6.55748V8.22814C11.6016 8.42231 11.759 8.57971 11.9531 8.57971H14.2072L14.0251 10.3887H11.9531C11.759 10.3887 11.6016 10.5461 11.6016 10.7402V17.6484C11.6016 17.8426 11.759 18 11.9531 18H14.5547C16.4545 18 18 16.4545 18 14.5547V3.44531C18 1.54554 16.4545 0 14.5547 0Z" fill="#C93E20" stroke="#C93E20" stroke-width="0.5"/>
<path d="M2.03906 3.60352C1.84489 3.60352 1.6875 3.76091 1.6875 3.95508V6.89062C1.6875 7.08479 1.84489 7.24219 2.03906 7.24219C2.23323 7.24219 2.39062 7.08479 2.39062 6.89062V3.95508C2.39062 3.76091 2.23323 3.60352 2.03906 3.60352Z" fill="#C93E20" stroke="#C93E20" stroke-width="0.5"/>
<path d="M2.03906 8.06421C1.84489 8.06421 1.6875 8.2216 1.6875 8.41577V8.41992C1.6875 8.61409 1.84489 8.77148 2.03906 8.77148C2.23323 8.77148 2.39062 8.61409 2.39062 8.41992V8.41577C2.39062 8.2216 2.23323 8.06421 2.03906 8.06421Z" fill="#C93E20" stroke="#C93E20" stroke-width="0.5"/>
</g>
<defs>
<clipPath id="clip0">
<rect width="18" height="18" fill="white"/>
</clipPath>
</defs>
</svg>
