<svg width="53" height="53" viewBox="0 0 53 53" fill="none" xmlns="http://www.w3.org/2000/svg">
<path d="M18.6763 47.5785C18.4691 47.386 18.1842 47.2753 17.8925 47.2753C17.5996 47.2753 17.3148 47.386 17.1085 47.5785C16.9011 47.771 16.7837 48.038 16.7837 48.3103C16.7837 48.5825 16.9012 48.8495 17.1085 49.042C17.3137 49.2346 17.5997 49.3452 17.8925 49.3452C18.184 49.3452 18.469 49.2345 18.6763 49.042C18.8826 48.8495 19.0013 48.5825 19.0013 48.3103C19.0013 48.038 18.8826 47.771 18.6763 47.5785Z" fill="white"/>
<path d="M49.335 10.8637L29.9466 0.837118C27.7887 -0.278988 25.2119 -0.279091 23.0535 0.837118L3.66499 10.8639C1.40424 12.0331 0 14.2578 0 16.6701V22.3046C0 22.307 0 22.3093 0 22.3116V36.3302C0 38.7424 1.40424 40.9672 3.66499 42.1364L13.949 47.4548C14.4847 47.7318 15.1594 47.5511 15.4562 47.0511C15.753 46.5511 15.5595 45.9212 15.0238 45.6443L13.5126 44.8627C13.5154 44.8325 13.5176 44.802 13.5176 44.771V29.9174L22.9695 34.8054C23.7371 35.2022 24.5563 35.4611 25.3914 35.5824V50.8062C24.957 50.7109 24.5319 50.5611 24.1284 50.3524L21.6654 49.0786C21.1298 48.8016 20.455 48.9822 20.1582 49.4823C19.8614 49.9823 20.0549 50.6122 20.5906 50.8891L23.0535 52.1629C24.1325 52.721 25.3161 53 26.5 53C27.6838 53 28.8675 52.721 29.9466 52.163L49.335 42.1362C51.5958 40.967 53 38.7423 53 36.3299V22.3115C53 22.3092 53 22.3069 53 22.3045V16.6699C53 14.2577 51.5958 12.033 49.335 10.8637ZM50.7824 16.6699V21.7071L41.7002 26.404V21.6733C41.7002 21.0979 41.5713 20.5401 41.3345 20.029L50.5432 15.2667C50.698 15.714 50.7824 16.1861 50.7824 16.6699ZM41.5202 9.18866L48.2604 12.6743C48.6879 12.8956 49.0692 13.1732 49.3999 13.4917L39.9509 18.3782C39.7811 18.2574 39.6019 18.1463 39.4119 18.0481L35.6327 16.0938C38.9587 15.9888 41.6301 13.4323 41.6301 10.3028C41.6301 9.92176 41.5925 9.54931 41.5202 9.18866ZM36.9315 6.85407C38.1308 7.31192 39.4124 8.45835 39.4124 10.3029C39.4124 12.3575 37.6216 14.0289 35.4204 14.0289H31.6398L31.6322 14.025C31.7049 13.7824 31.7446 13.527 31.7446 13.263C31.7446 11.9492 31.18 10.7567 30.2662 9.88387L32.5726 7.69203C33.9573 6.37603 35.7321 6.39643 36.9315 6.85407ZM24.1284 2.64761C25.6137 1.87942 27.3869 1.87962 28.8719 2.64761L33.1859 4.87858C32.383 5.17173 31.6357 5.62855 30.9904 6.24157L28.3725 8.72957C27.8081 8.53237 27.1977 8.42399 26.5604 8.42399H25.9731C25.4665 8.42399 24.9771 8.49345 24.514 8.62046L22.0109 6.24157C21.3656 5.62824 20.618 5.17153 19.8148 4.87837L24.1284 2.64761ZM29.5271 13.263C29.5271 13.6854 29.1591 14.0289 28.7066 14.0289H23.827C23.3746 14.0289 23.0066 13.6854 23.0066 13.263C23.0066 11.7362 24.3375 10.4939 25.9732 10.4939H26.5606C28.1961 10.494 29.5271 11.7361 29.5271 13.263ZM16.0694 6.85407C17.2687 6.39622 19.0438 6.37603 20.4284 7.69192L22.5075 9.66762C21.4531 10.554 20.7889 11.8373 20.7889 13.2629C20.7889 13.5283 20.829 13.7851 20.9024 14.0288H17.5807C15.3794 14.0288 13.5886 12.3574 13.5886 10.3028C13.5885 8.45835 14.8702 7.31192 16.0694 6.85407ZM11.2998 43.7183L4.73974 40.3258C3.18401 39.5212 2.2176 37.9901 2.2176 36.3302V24.0736L11.2998 28.7705V43.7183ZM11.2998 21.6734V26.404L2.2176 21.7071V16.67C2.2176 16.1753 2.30522 15.6928 2.46691 15.2369L11.6795 20.0012C11.4341 20.5198 11.2998 21.0875 11.2998 21.6734ZM13.0769 18.3576L3.62373 13.4688C3.94901 13.1599 4.32242 12.8903 4.73974 12.6744L11.4808 9.18835C11.4085 9.5491 11.3708 9.92165 11.3708 10.303C11.3708 13.4323 14.0419 15.9886 17.3674 16.094L13.5882 18.0485C13.4088 18.141 13.2383 18.2446 13.0769 18.3576ZM25.3913 33.4729C24.9277 33.375 24.4741 33.2171 24.0443 32.9948L13.5176 27.5509V21.6734C13.5176 21.4449 13.5585 21.2221 13.6342 21.012L22.9745 25.8423C23.7408 26.2385 24.558 26.4985 25.3914 26.6222V33.4729H25.3913ZM24.0493 24.0318L15.3216 19.5183L21.9336 16.0988H31.0667L37.7128 19.5358L29.019 24.0318C27.4632 24.8363 25.6052 24.8363 24.0493 24.0318ZM30.0937 25.8424L39.376 21.0421C39.445 21.2435 39.4827 21.4559 39.4827 21.6736V27.5511L28.9559 32.995C28.5261 33.2173 28.0725 33.3751 27.6089 33.4731V26.6316H27.6088C28.4657 26.512 29.3067 26.2493 30.0937 25.8424ZM50.7824 36.3299C50.7824 37.99 49.8161 39.521 48.2603 40.3256L41.7002 43.7182V40.8167C41.7002 40.2451 41.2037 39.7818 40.5914 39.7818C39.9791 39.7818 39.4826 40.2451 39.4826 40.8167V44.7707C39.4826 44.8017 39.4847 44.8322 39.4875 44.8624L28.8719 50.3524C28.4684 50.5611 28.0433 50.7109 27.6088 50.8062V35.5825C28.4438 35.4611 29.263 35.2023 30.0307 34.8055L39.4827 29.9175V33.0203C39.4827 33.592 39.9792 34.0553 40.5915 34.0553C41.2038 34.0553 41.7003 33.592 41.7003 33.0203V28.7705L50.7825 24.0736V36.3299H50.7824Z" fill="white"/>
<path d="M41.3757 36.3827C41.1683 36.19 40.8834 36.0795 40.5917 36.0795C40.3 36.0795 40.014 36.1902 39.8077 36.3827C39.6004 36.5752 39.4829 36.8422 39.4829 37.1145C39.4829 37.3867 39.6005 37.6537 39.8077 37.8462C40.014 38.0398 40.3 38.1494 40.5917 38.1494C40.8834 38.1494 41.1694 38.0397 41.3757 37.8462C41.5818 37.6537 41.7005 37.3867 41.7005 37.1145C41.7005 36.8422 41.5818 36.5752 41.3757 36.3827Z" fill="white"/>
</svg>
