<svg width="18" height="18" viewBox="0 0 18 18" fill="none" xmlns="http://www.w3.org/2000/svg">
<g clip-path="url(#clip0)">
<path d="M12.7266 -0.00012207H5.27344C2.36566 -0.00012207 0 2.36554 0 5.27332V12.7264C0 15.6342 2.36566 17.9999 5.27344 17.9999H12.7266C15.6343 17.9999 18 15.6342 18 12.7264V5.27332C18 2.36554 15.6343 -0.00012207 12.7266 -0.00012207ZM17.2969 12.7264C17.2969 15.2465 15.2466 17.2968 12.7266 17.2968H5.27344C2.75337 17.2968 0.703125 15.2465 0.703125 12.7264V5.27332C0.703125 2.75325 2.75337 0.703003 5.27344 0.703003H12.7266C15.2466 0.703003 17.2969 2.75325 17.2969 5.27332V12.7264Z" fill="#514947" stroke="#514947" stroke-width="0.3"/>
<path d="M12.7266 1.54675H5.27344C3.21859 1.54675 1.54688 3.21847 1.54688 5.27332V12.7264C1.54688 14.7813 3.21859 16.453 5.27344 16.453H7.41797C7.61214 16.453 7.76953 16.2956 7.76953 16.1014C7.76953 15.9073 7.61214 15.7499 7.41797 15.7499H5.27344C3.60633 15.7499 2.25 14.3935 2.25 12.7264V5.27332C2.25 3.60621 3.60633 2.24988 5.27344 2.24988H12.7266C14.3937 2.24988 15.75 3.60621 15.75 5.27332V12.7264C15.75 14.3935 14.3937 15.7499 12.7266 15.7499H10.6055C10.4113 15.7499 10.2539 15.9073 10.2539 16.1014C10.2539 16.2956 10.4113 16.453 10.6055 16.453H12.7266C14.7814 16.453 16.4531 14.7813 16.4531 12.7264V5.27332C16.4531 3.21847 14.7814 1.54675 12.7266 1.54675Z" fill="#514947" stroke="#514947" stroke-width="0.3"/>
<path d="M9.24855 15.8529C9.18316 15.7875 9.09246 15.7499 9 15.7499C8.90754 15.7499 8.81684 15.7875 8.75145 15.8529C8.68605 15.9183 8.64844 16.009 8.64844 16.1014C8.64844 16.1939 8.68605 16.2846 8.75145 16.35C8.81684 16.4154 8.90754 16.453 9 16.453C9.09246 16.453 9.18316 16.4154 9.24855 16.35C9.31395 16.2846 9.35156 16.1939 9.35156 16.1014C9.35156 16.009 9.31395 15.9183 9.24855 15.8529Z" fill="#514947" stroke="#514947" stroke-width="0.3"/>
<path d="M6.1814 5.47411C6.04861 5.33242 5.82618 5.32518 5.68446 5.4579L5.66889 5.47256C5.52766 5.6058 5.5212 5.82831 5.65447 5.96953C5.72363 6.04283 5.81683 6.07981 5.91024 6.07981C5.99679 6.07981 6.08352 6.04803 6.15144 5.98394L6.16519 5.97104C6.30687 5.83829 6.31415 5.61579 6.1814 5.47411Z" fill="#514947" stroke="#514947" stroke-width="0.3"/>
<path d="M9 4.14832C8.22783 4.14832 7.45931 4.33433 6.77753 4.68624C6.60502 4.77529 6.53734 4.98735 6.62639 5.1599C6.71548 5.33241 6.92754 5.40005 7.10005 5.31104C7.69085 5.00606 8.3301 4.85144 9 4.85144C11.2874 4.85144 13.1484 6.71244 13.1484 8.99988C13.1484 11.2873 11.2874 13.1483 9 13.1483C6.71256 13.1483 4.85156 11.2873 4.85156 8.99988C4.85156 8.28202 5.03771 7.57475 5.38991 6.95456C5.48578 6.78574 5.42665 6.57114 5.25779 6.47524C5.08894 6.3794 4.87438 6.4385 4.77847 6.60735C4.3663 7.33319 4.14844 8.16052 4.14844 8.99988C4.14844 11.675 6.32486 13.8514 9 13.8514C11.6751 13.8514 13.8516 11.675 13.8516 8.99988C13.8516 6.32473 11.6751 4.14832 9 4.14832Z" fill="#514947" stroke="#514947" stroke-width="0.3"/>
<path d="M9 5.83582C7.25534 5.83582 5.83594 7.25521 5.83594 8.99988C5.83594 10.7445 7.25534 12.1639 9 12.1639C10.7447 12.1639 12.1641 10.7445 12.1641 8.99988C12.1641 7.25521 10.7447 5.83582 9 5.83582ZM9 11.4608C7.64304 11.4608 6.53906 10.3568 6.53906 8.99988C6.53906 7.64292 7.64304 6.53894 9 6.53894C10.357 6.53894 11.4609 7.64292 11.4609 8.99988C11.4609 10.3568 10.357 11.4608 9 11.4608Z" fill="#514947" stroke="#514947" stroke-width="0.3"/>
<path d="M13.6143 3.04968C12.8776 3.04968 12.2783 3.64899 12.2783 4.38562C12.2783 5.12225 12.8776 5.72156 13.6143 5.72156C14.3509 5.72156 14.9502 5.12225 14.9502 4.38562C14.9502 3.64899 14.3509 3.04968 13.6143 3.04968ZM13.6143 5.01843C13.2653 5.01843 12.9814 4.73455 12.9814 4.38562C12.9814 4.03669 13.2653 3.75281 13.6143 3.75281C13.9632 3.75281 14.2471 4.03669 14.2471 4.38562C14.2471 4.73455 13.9632 5.01843 13.6143 5.01843Z" fill="#514947" stroke="#514947" stroke-width="0.3"/>
</g>
<defs>
<clipPath id="clip0">
<rect width="18" height="18" fill="white" transform="translate(0 -0.00012207)"/>
</clipPath>
</defs>
</svg>
