<svg width="21" height="21" viewBox="0 0 21 21" fill="none" xmlns="http://www.w3.org/2000/svg">
<g clip-path="url(#clip0)">
<path d="M14.9511 0.146973H6.40197C3.06658 0.146973 0.353027 2.86053 0.353027 6.19592V14.7451C0.353027 18.0805 3.06658 20.794 6.40197 20.794H14.9511C18.2865 20.794 21.0001 18.0805 21.0001 14.7451V6.19592C21.0001 2.86053 18.2865 0.146973 14.9511 0.146973ZM20.1936 14.7451C20.1936 17.6358 17.8418 19.9875 14.9511 19.9875H6.40197C3.5113 19.9875 1.15955 17.6358 1.15955 14.7451V6.19592C1.15955 3.30525 3.5113 0.953498 6.40197 0.953498H14.9511C17.8418 0.953498 20.1936 3.30525 20.1936 6.19592V14.7451Z" fill="white" stroke="white" stroke-width="0.344118"/>
<path d="M14.9512 1.92139H6.40203C4.045 1.92139 2.12744 3.83894 2.12744 6.19597V14.7451C2.12744 17.1022 4.045 19.0197 6.40203 19.0197H8.86193C9.08465 19.0197 9.26519 18.8392 9.26519 18.6165C9.26519 18.3937 9.08465 18.2132 8.86193 18.2132H6.40203C4.48976 18.2132 2.93397 16.6574 2.93397 14.7451V6.19597C2.93397 4.2837 4.48976 2.72791 6.40203 2.72791H14.9512C16.8635 2.72791 18.4193 4.2837 18.4193 6.19597V14.7451C18.4193 16.6574 16.8635 18.2132 14.9512 18.2132H12.5182C12.2955 18.2132 12.1149 18.3937 12.1149 18.6165C12.1149 18.8392 12.2955 19.0197 12.5182 19.0197H14.9512C17.3082 19.0197 19.2258 17.1022 19.2258 14.7451V6.19597C19.2258 3.83894 17.3082 1.92139 14.9512 1.92139Z" fill="white" stroke="white" stroke-width="0.344118"/>
<path d="M10.9618 18.3315C10.8868 18.2565 10.7828 18.2134 10.6767 18.2134C10.5706 18.2134 10.4666 18.2565 10.3916 18.3315C10.3166 18.4065 10.2734 18.5106 10.2734 18.6166C10.2734 18.7227 10.3166 18.8267 10.3916 18.9017C10.4666 18.9768 10.5706 19.0199 10.6767 19.0199C10.7828 19.0199 10.8868 18.9768 10.9618 18.9017C11.0368 18.8267 11.08 18.7227 11.08 18.6166C11.08 18.5106 11.0368 18.4065 10.9618 18.3315Z" fill="white" stroke="white" stroke-width="0.344118"/>
<path d="M7.4434 6.42588C7.29108 6.26337 7.03594 6.25506 6.87338 6.40729L6.85552 6.42411C6.69353 6.57694 6.68611 6.83217 6.83898 6.99416C6.91831 7.07824 7.02521 7.12067 7.13236 7.12067C7.23164 7.12067 7.33113 7.08421 7.40904 7.0107L7.42481 6.9959C7.58732 6.84362 7.59567 6.5884 7.4434 6.42588Z" fill="white" stroke="white" stroke-width="0.344118"/>
<path d="M10.6764 4.90527C9.79063 4.90527 8.9091 5.11864 8.12705 5.52231C7.92917 5.62445 7.85154 5.8677 7.95369 6.06562C8.05587 6.2635 8.29912 6.34109 8.497 6.23898C9.17469 5.88915 9.90794 5.7118 10.6764 5.7118C13.3002 5.7118 15.4349 7.84647 15.4349 10.4703C15.4349 13.0941 13.3002 15.2288 10.6764 15.2288C8.05253 15.2288 5.91785 13.0941 5.91785 10.4703C5.91785 9.64688 6.13138 8.83559 6.53537 8.1242C6.64534 7.93055 6.57751 7.6844 6.38382 7.57439C6.19014 7.46446 5.94403 7.53225 5.83402 7.72594C5.36123 8.55851 5.11133 9.50751 5.11133 10.4703C5.11133 13.5388 7.60781 16.0353 10.6764 16.0353C13.7449 16.0353 16.2414 13.5388 16.2414 10.4703C16.2414 7.40175 13.7449 4.90527 10.6764 4.90527Z" fill="white" stroke="white" stroke-width="0.344118"/>
<path d="M10.6762 6.84131C8.67501 6.84131 7.04688 8.46944 7.04688 10.4707C7.04688 12.4719 8.67501 14.1 10.6762 14.1C12.6775 14.1 14.3056 12.4719 14.3056 10.4707C14.3056 8.46944 12.6775 6.84131 10.6762 6.84131ZM10.6762 13.2935C9.11973 13.2935 7.8534 12.0272 7.8534 10.4707C7.8534 8.91416 9.11973 7.64783 10.6762 7.64783C12.2328 7.64783 13.4991 8.91416 13.4991 10.4707C13.4991 12.0272 12.2328 13.2935 10.6762 13.2935Z" fill="white" stroke="white" stroke-width="0.344118"/>
<path d="M15.9694 3.64551C15.1245 3.64551 14.437 4.33295 14.437 5.17791C14.437 6.02286 15.1245 6.71031 15.9694 6.71031C16.8144 6.71031 17.5018 6.02286 17.5018 5.17791C17.5018 4.33295 16.8144 3.64551 15.9694 3.64551ZM15.9694 5.90378C15.5692 5.90378 15.2435 5.57815 15.2435 5.17791C15.2435 4.77767 15.5692 4.45203 15.9694 4.45203C16.3696 4.45203 16.6953 4.77767 16.6953 5.17791C16.6953 5.57815 16.3696 5.90378 15.9694 5.90378Z" fill="white" stroke="white" stroke-width="0.344118"/>
</g>
<defs>
<clipPath id="clip0">
<rect width="20.6471" height="20.6471" fill="white" transform="translate(0.353027 0.146973)"/>
</clipPath>
</defs>
</svg>
