<svg width="53" height="53" viewBox="0 0 53 53" fill="none" xmlns="http://www.w3.org/2000/svg">
<g clip-path="url(#clip0)">
<path d="M52.1167 4.40833H45.9333V0.881471C45.9333 0.394544 45.5378 -0.000244141 45.05 -0.000244141H0.883333C0.395512 -0.000244141 0 0.394544 0 0.881471V46.7307C0.00386458 50.1377 2.77002 52.8988 6.18333 52.9027H46.8167C50.23 52.8988 52.9961 50.1377 53 46.7307V5.29005C53 4.80312 52.6045 4.40833 52.1167 4.40833ZM51.2333 46.7307C51.2305 49.1642 49.2547 51.1364 46.8167 51.1393H6.18333C3.74533 51.1364 1.76954 49.1642 1.76667 46.7307V1.76319H44.1667V44.9673C44.1667 45.4542 44.5622 45.849 45.05 45.849C45.5378 45.849 45.9333 45.4542 45.9333 44.9673V6.17176H47.7V44.9673C47.7 45.4542 48.0955 45.849 48.5833 45.849C49.0712 45.849 49.4667 45.4542 49.4667 44.9673V6.17176H51.2333V46.7307Z" fill="#C93E20"/>
<path d="M16.7834 5.28992H6.18338C5.69556 5.28992 5.30005 5.68471 5.30005 6.17163V23.806C5.30005 24.2929 5.69556 24.6877 6.18338 24.6877H16.7834C17.2712 24.6877 17.6667 24.2929 17.6667 23.806V6.17163C17.6667 5.68471 17.2712 5.28992 16.7834 5.28992ZM15.9001 22.9243H7.06672V7.05335H15.9001V22.9243Z" fill="#C93E20"/>
<path d="M39.75 29.978H27.3833C26.8955 29.978 26.5 30.3728 26.5 30.8597V44.9671C26.5 45.454 26.8955 45.8488 27.3833 45.8488H39.75C40.2378 45.8488 40.6333 45.454 40.6333 44.9671V30.8597C40.6333 30.3728 40.2378 29.978 39.75 29.978ZM38.8667 44.0854H28.2667V31.7414H38.8667V44.0854Z" fill="#C93E20"/>
<path d="M39.75 5.28992H22.0833C21.5955 5.28992 21.2 5.68472 21.2 6.17166C21.2 6.6586 21.5955 7.05341 22.0833 7.05341H39.75C40.2378 7.05341 40.6333 6.6586 40.6333 6.17166C40.6333 5.68472 40.2378 5.28992 39.75 5.28992Z" fill="#C93E20"/>
<path d="M39.75 8.81689H22.0833C21.5955 8.81689 21.2 9.21168 21.2 9.6986C21.2 10.1855 21.5955 10.5803 22.0833 10.5803H39.75C40.2378 10.5803 40.6333 10.1855 40.6333 9.6986C40.6333 9.21168 40.2378 8.81689 39.75 8.81689Z" fill="#C93E20"/>
<path d="M39.75 12.3438H22.0833C21.5955 12.3438 21.2 12.7386 21.2 13.2255C21.2 13.7124 21.5955 14.1072 22.0833 14.1072H39.75C40.2378 14.1072 40.6333 13.7124 40.6333 13.2255C40.6333 12.7386 40.2378 12.3438 39.75 12.3438Z" fill="#C93E20"/>
<path d="M39.75 15.8706H22.0833C21.5955 15.8706 21.2 16.2654 21.2 16.7523C21.2 17.2392 21.5955 17.634 22.0833 17.634H39.75C40.2378 17.634 40.6333 17.2392 40.6333 16.7523C40.6333 16.2654 40.2378 15.8706 39.75 15.8706Z" fill="#C93E20"/>
<path d="M39.75 19.3975H22.0833C21.5955 19.3975 21.2 19.7923 21.2 20.2792C21.2 20.7661 21.5955 21.1609 22.0833 21.1609H39.75C40.2378 21.1609 40.6333 20.7661 40.6333 20.2792C40.6333 19.7923 40.2378 19.3975 39.75 19.3975Z" fill="#C93E20"/>
<path d="M39.75 22.9243H22.0833C21.5955 22.9243 21.2 23.3191 21.2 23.8061C21.2 24.293 21.5955 24.6878 22.0833 24.6878H39.75C40.2378 24.6878 40.6333 24.293 40.6333 23.8061C40.6333 23.3191 40.2378 22.9243 39.75 22.9243Z" fill="#C93E20"/>
<path d="M13.25 29.978H6.18338C5.69556 29.978 5.30005 30.3728 5.30005 30.8597C5.30005 31.3466 5.69556 31.7414 6.18338 31.7414H13.25C13.7379 31.7414 14.1334 31.3466 14.1334 30.8597C14.1334 30.3728 13.7379 29.978 13.25 29.978Z" fill="#C93E20"/>
<path d="M23.8499 29.978H16.7832C16.2954 29.978 15.8999 30.3728 15.8999 30.8597C15.8999 31.3466 16.2954 31.7414 16.7832 31.7414H23.8499C24.3377 31.7414 24.7332 31.3466 24.7332 30.8597C24.7332 30.3728 24.3377 29.978 23.8499 29.978Z" fill="#C93E20"/>
<path d="M13.25 33.5049H6.18338C5.69556 33.5049 5.30005 33.8997 5.30005 34.3866C5.30005 34.8736 5.69556 35.2684 6.18338 35.2684H13.25C13.7379 35.2684 14.1334 34.8736 14.1334 34.3866C14.1334 33.8997 13.7379 33.5049 13.25 33.5049Z" fill="#C93E20"/>
<path d="M23.8499 33.5049H16.7832C16.2954 33.5049 15.8999 33.8997 15.8999 34.3866C15.8999 34.8736 16.2954 35.2684 16.7832 35.2684H23.8499C24.3377 35.2684 24.7332 34.8736 24.7332 34.3866C24.7332 33.8997 24.3377 33.5049 23.8499 33.5049Z" fill="#C93E20"/>
<path d="M13.25 37.0317H6.18338C5.69556 37.0317 5.30005 37.4265 5.30005 37.9134C5.30005 38.4004 5.69556 38.7951 6.18338 38.7951H13.25C13.7379 38.7951 14.1334 38.4004 14.1334 37.9134C14.1334 37.4265 13.7379 37.0317 13.25 37.0317Z" fill="#C93E20"/>
<path d="M23.8499 37.0317H16.7832C16.2954 37.0317 15.8999 37.4265 15.8999 37.9134C15.8999 38.4004 16.2954 38.7951 16.7832 38.7951H23.8499C24.3377 38.7951 24.7332 38.4004 24.7332 37.9134C24.7332 37.4265 24.3377 37.0317 23.8499 37.0317Z" fill="#C93E20"/>
<path d="M13.25 40.5585H6.18338C5.69556 40.5585 5.30005 40.9533 5.30005 41.4402C5.30005 41.9272 5.69556 42.322 6.18338 42.322H13.25C13.7379 42.322 14.1334 41.9272 14.1334 41.4402C14.1334 40.9533 13.7379 40.5585 13.25 40.5585Z" fill="#C93E20"/>
<path d="M23.8499 40.5585H16.7832C16.2954 40.5585 15.8999 40.9533 15.8999 41.4402C15.8999 41.9272 16.2954 42.322 16.7832 42.322H23.8499C24.3377 42.322 24.7332 41.9272 24.7332 41.4402C24.7332 40.9533 24.3377 40.5585 23.8499 40.5585Z" fill="#C93E20"/>
</g>
<defs>
<clipPath id="clip0">
<rect width="53" height="53" fill="white" transform="translate(0 -0.00012207)"/>
</clipPath>
</defs>
</svg>
