<svg width="53" height="53" viewBox="0 0 53 53" fill="none" xmlns="http://www.w3.org/2000/svg">
<path d="M52.1167 4.41654H45.9333V0.883211C45.9333 0.39539 45.5378 -0.00012207 45.05 -0.00012207H0.883333C0.395512 -0.00012207 0 0.39539 0 0.883211V46.8165C0.00386458 50.2299 2.77002 52.996 6.18333 52.9999H46.8167C50.23 52.996 52.9961 50.2299 53 46.8165V5.29988C53 4.81206 52.6045 4.41654 52.1167 4.41654ZM51.2333 46.8165C51.2305 49.2545 49.2547 51.2303 46.8167 51.2332H6.18333C3.74533 51.2303 1.76954 49.2545 1.76667 46.8165V1.76654H44.1667V45.0499C44.1667 45.5377 44.5622 45.9332 45.05 45.9332C45.5378 45.9332 45.9333 45.5377 45.9333 45.0499V6.18321H47.7V45.0499C47.7 45.5377 48.0955 45.9332 48.5833 45.9332C49.0712 45.9332 49.4667 45.5377 49.4667 45.0499V6.18321H51.2333V46.8165Z" fill="white"/>
<path d="M16.7834 5.2998H6.18338C5.69556 5.2998 5.30005 5.69532 5.30005 6.18314V23.8498C5.30005 24.3377 5.69556 24.7332 6.18338 24.7332H16.7834C17.2712 24.7332 17.6667 24.3377 17.6667 23.8498V6.18314C17.6667 5.69532 17.2712 5.2998 16.7834 5.2998ZM15.9001 22.9665H7.06672V7.06647H15.9001V22.9665Z" fill="white"/>
<path d="M39.75 30.0332H27.3833C26.8955 30.0332 26.5 30.4287 26.5 30.9165V45.0498C26.5 45.5376 26.8955 45.9331 27.3833 45.9331H39.75C40.2378 45.9331 40.6333 45.5376 40.6333 45.0498V30.9165C40.6333 30.4287 40.2378 30.0332 39.75 30.0332ZM38.8667 44.1665H28.2667V31.7999H38.8667V44.1665Z" fill="white"/>
<path d="M39.75 5.2998H22.0833C21.5955 5.2998 21.2 5.69533 21.2 6.18317C21.2 6.671 21.5955 7.06653 22.0833 7.06653H39.75C40.2378 7.06653 40.6333 6.671 40.6333 6.18317C40.6333 5.69533 40.2378 5.2998 39.75 5.2998Z" fill="white"/>
<path d="M39.75 8.83325H22.0833C21.5955 8.83325 21.2 9.22876 21.2 9.71657C21.2 10.2044 21.5955 10.5999 22.0833 10.5999H39.75C40.2378 10.5999 40.6333 10.2044 40.6333 9.71657C40.6333 9.22876 40.2378 8.83325 39.75 8.83325Z" fill="white"/>
<path d="M39.75 12.3666H22.0833C21.5955 12.3666 21.2 12.7621 21.2 13.2499C21.2 13.7378 21.5955 14.1333 22.0833 14.1333H39.75C40.2378 14.1333 40.6333 13.7378 40.6333 13.2499C40.6333 12.7621 40.2378 12.3666 39.75 12.3666Z" fill="white"/>
<path d="M39.75 15.8999H22.0833C21.5955 15.8999 21.2 16.2954 21.2 16.7832C21.2 17.271 21.5955 17.6665 22.0833 17.6665H39.75C40.2378 17.6665 40.6333 17.271 40.6333 16.7832C40.6333 16.2954 40.2378 15.8999 39.75 15.8999Z" fill="white"/>
<path d="M39.75 19.4332H22.0833C21.5955 19.4332 21.2 19.8288 21.2 20.3166C21.2 20.8044 21.5955 21.2 22.0833 21.2H39.75C40.2378 21.2 40.6333 20.8044 40.6333 20.3166C40.6333 19.8288 40.2378 19.4332 39.75 19.4332Z" fill="white"/>
<path d="M39.75 22.9666H22.0833C21.5955 22.9666 21.2 23.3621 21.2 23.8499C21.2 24.3378 21.5955 24.7333 22.0833 24.7333H39.75C40.2378 24.7333 40.6333 24.3378 40.6333 23.8499C40.6333 23.3621 40.2378 22.9666 39.75 22.9666Z" fill="white"/>
<path d="M13.25 30.0332H6.18338C5.69556 30.0332 5.30005 30.4287 5.30005 30.9165C5.30005 31.4043 5.69556 31.7998 6.18338 31.7998H13.25C13.7379 31.7998 14.1334 31.4043 14.1334 30.9165C14.1334 30.4287 13.7379 30.0332 13.25 30.0332Z" fill="white"/>
<path d="M23.8499 30.0332H16.7832C16.2954 30.0332 15.8999 30.4287 15.8999 30.9165C15.8999 31.4043 16.2954 31.7998 16.7832 31.7998H23.8499C24.3377 31.7998 24.7332 31.4043 24.7332 30.9165C24.7332 30.4287 24.3377 30.0332 23.8499 30.0332Z" fill="white"/>
<path d="M13.25 33.5665H6.18338C5.69556 33.5665 5.30005 33.9621 5.30005 34.4499C5.30005 34.9377 5.69556 35.3333 6.18338 35.3333H13.25C13.7379 35.3333 14.1334 34.9377 14.1334 34.4499C14.1334 33.9621 13.7379 33.5665 13.25 33.5665Z" fill="white"/>
<path d="M23.8499 33.5665H16.7832C16.2954 33.5665 15.8999 33.9621 15.8999 34.4499C15.8999 34.9377 16.2954 35.3333 16.7832 35.3333H23.8499C24.3377 35.3333 24.7332 34.9377 24.7332 34.4499C24.7332 33.9621 24.3377 33.5665 23.8499 33.5665Z" fill="white"/>
<path d="M13.25 37.0999H6.18338C5.69556 37.0999 5.30005 37.4954 5.30005 37.9832C5.30005 38.471 5.69556 38.8665 6.18338 38.8665H13.25C13.7379 38.8665 14.1334 38.471 14.1334 37.9832C14.1334 37.4954 13.7379 37.0999 13.25 37.0999Z" fill="white"/>
<path d="M23.8499 37.0999H16.7832C16.2954 37.0999 15.8999 37.4954 15.8999 37.9832C15.8999 38.471 16.2954 38.8665 16.7832 38.8665H23.8499C24.3377 38.8665 24.7332 38.471 24.7332 37.9832C24.7332 37.4954 24.3377 37.0999 23.8499 37.0999Z" fill="white"/>
<path d="M13.25 40.6331H6.18338C5.69556 40.6331 5.30005 41.0286 5.30005 41.5164C5.30005 42.0043 5.69556 42.3998 6.18338 42.3998H13.25C13.7379 42.3998 14.1334 42.0043 14.1334 41.5164C14.1334 41.0286 13.7379 40.6331 13.25 40.6331Z" fill="white"/>
<path d="M23.8499 40.6331H16.7832C16.2954 40.6331 15.8999 41.0286 15.8999 41.5164C15.8999 42.0043 16.2954 42.3998 16.7832 42.3998H23.8499C24.3377 42.3998 24.7332 42.0043 24.7332 41.5164C24.7332 41.0286 24.3377 40.6331 23.8499 40.6331Z" fill="white"/>
</svg>
