<svg width="26" height="24" viewBox="0 0 26 24" fill="none" xmlns="http://www.w3.org/2000/svg">
<path d="M8.73254 15.5158H8.73364C8.73456 15.5158 8.73547 15.5156 8.73639 15.5156H21.4844C21.7982 15.5156 22.0742 15.3074 22.1604 15.0057L24.9729 5.16193C25.0335 4.94971 24.991 4.72156 24.8583 4.54541C24.7253 4.36926 24.5175 4.26562 24.2969 4.26562H7.11096L6.60834 2.00372C6.53674 1.68201 6.25146 1.45312 5.92188 1.45312H1.70312C1.31476 1.45312 1 1.76788 1 2.15625C1 2.54462 1.31476 2.85937 1.70312 2.85937H5.35791C5.4469 3.26019 7.76318 13.6837 7.89648 14.2833C7.14923 14.6082 6.625 15.3532 6.625 16.2187C6.625 17.3818 7.57129 18.3281 8.73438 18.3281H21.4844C21.8727 18.3281 22.1875 18.0134 22.1875 17.625C22.1875 17.2366 21.8727 16.9219 21.4844 16.9219H8.73438C8.34674 16.9219 8.03125 16.6064 8.03125 16.2187C8.03125 15.8317 8.34564 15.5167 8.73254 15.5158V15.5158ZM23.3647 5.67187L20.9539 14.1094H9.29834L7.42334 5.67187H23.3647Z" fill="white"/>
<path d="M8.03125 20.4375C8.03125 21.6006 8.97754 22.5469 10.1406 22.5469C11.3037 22.5469 12.25 21.6006 12.25 20.4375C12.25 19.2744 11.3037 18.3281 10.1406 18.3281C8.97754 18.3281 8.03125 19.2744 8.03125 20.4375ZM10.1406 19.7344C10.5283 19.7344 10.8438 20.0499 10.8438 20.4375C10.8438 20.8251 10.5283 21.1406 10.1406 21.1406C9.75299 21.1406 9.4375 20.8251 9.4375 20.4375C9.4375 20.0499 9.75299 19.7344 10.1406 19.7344Z" fill="white"/>
<path d="M17.9688 20.4375C17.9688 21.6006 18.915 22.5469 20.0781 22.5469C21.2412 22.5469 22.1875 21.6006 22.1875 20.4375C22.1875 19.2744 21.2412 18.3281 20.0781 18.3281C18.915 18.3281 17.9688 19.2744 17.9688 20.4375ZM20.0781 19.7344C20.4658 19.7344 20.7812 20.0499 20.7812 20.4375C20.7812 20.8251 20.4658 21.1406 20.0781 21.1406C19.6905 21.1406 19.375 20.8251 19.375 20.4375C19.375 20.0499 19.6905 19.7344 20.0781 19.7344Z" fill="white"/>
</svg>
