<svg width="64" height="64" viewBox="0 0 64 64" fill="none" xmlns="http://www.w3.org/2000/svg">
<g clip-path="url(#clip0)">
<path d="M46.7566 39.0978C43.4407 39.0898 39.3314 46.6416 39.3314 46.6416C36.0875 49.8602 28.581 47.5816 22.5637 41.5564C16.5465 35.5285 14.2999 28.0326 17.5412 24.8167C17.5412 24.8167 24.9584 20.5768 24.9677 17.2703C24.9811 11.1798 13.8359 0.016001 7.72544 1.33731e-06C6.35472 -0.00262361 3.83615 3.85992 3.83615 3.85992C-4.54105 12.1691 1.26558 31.5259 16.8052 47.091C32.3449 62.656 51.7337 68.5385 60.1109 60.2293C60.1109 60.2293 63.9975 57.7374 64.0002 56.3694C64.0149 50.2775 52.8685 39.1112 46.7566 39.0978Z" fill="#F2F2F2"/>
<path d="M21.748 21.8902C23.508 20.2836 24.9639 18.5702 24.9666 17.2703C24.9787 11.1798 13.8336 0.016001 7.72306 1.33731e-06C6.35234 -0.00262361 3.83239 3.85992 3.83239 3.85992C3.81776 3.87454 3.80439 3.89054 3.79102 3.90392L21.748 21.8902Z" fill="#514947"/>
<path d="M42.1055 42.2831L60.0625 60.2693C60.0771 60.2533 60.0918 60.2413 60.1078 60.228C60.1078 60.228 63.9944 57.736 63.9971 56.368C64.0118 50.2775 52.8654 39.111 46.7535 39.0978C45.4534 39.0952 43.7254 40.5351 42.1055 42.2831Z" fill="#514947"/>
<path d="M63.9979 13.1477C63.9979 20.413 56.2914 26.3088 46.7716 26.3088C46.4902 26.3088 46.225 26.3088 45.9582 26.2928L36.2118 31.4407V23.5343C32.1573 21.1329 29.5586 17.373 29.5586 13.1465C29.5586 5.89465 37.2638 0.00140381 46.7716 0.00140381C56.2914 0.00265378 63.9979 5.8959 63.9979 13.1477Z" fill="#C93E20"/>
<path d="M40.9158 13.1503C40.9158 14.7289 39.6372 16.0077 38.0585 16.0077C36.4798 16.0077 35.2012 14.7291 35.2012 13.1503C35.2012 11.5744 36.4798 10.2958 38.0585 10.2958C39.6372 10.2958 40.9158 11.5757 40.9158 13.1503Z" fill="white"/>
<path d="M49.6345 13.1503C49.6345 14.7289 48.3559 16.0077 46.7772 16.0077C45.1986 16.0077 43.9199 14.7291 43.9199 13.1503C43.9199 11.5744 45.1985 10.2958 46.7772 10.2958C48.3559 10.2958 49.6345 11.5757 49.6345 13.1503Z" fill="white"/>
<path d="M58.3519 13.1503C58.3519 14.7289 57.0733 16.0077 55.496 16.0077C53.9174 16.0077 52.6387 14.7291 52.6387 13.1503C52.6387 11.5744 53.9173 10.2958 55.496 10.2958C57.0732 10.2972 58.3519 11.5757 58.3519 13.1503Z" fill="white"/>
</g>
<defs>
<clipPath id="clip0">
<rect width="64" height="64" fill="white"/>
</clipPath>
</defs>
</svg>
