<svg width="18" height="18" viewBox="0 0 18 18" fill="none" xmlns="http://www.w3.org/2000/svg">
<g clip-path="url(#clip0)">
<path d="M15.2857 12.0504L15.1073 11.759C14.7587 11.1896 14.3368 10.6674 13.8533 10.207L13.2569 9.6391C13.2002 9.5851 13.1917 9.49939 13.2367 9.4353L14.051 8.27487C14.1685 8.10752 14.2768 7.93129 14.3732 7.75107L15.0691 6.44899C15.1903 6.22209 15.1839 5.9548 15.0517 5.73402C14.9196 5.51327 14.687 5.38126 14.4297 5.38098L12.9235 5.37926C12.9232 5.37926 12.9229 5.37926 12.9226 5.37926C12.607 5.37926 12.3212 5.5659 12.1944 5.85489L12.0349 6.2184C11.6278 7.14586 11.0722 7.99151 10.3829 8.73295V6.07911C10.3829 5.69303 10.0688 5.37891 9.68277 5.37891H7.54945C7.19916 5.37891 6.91422 5.66388 6.91422 6.01418C6.91422 6.14795 6.95545 6.27609 7.03343 6.38466L7.1827 6.59261C7.32906 6.79641 7.4064 7.03677 7.4064 7.28771V9.2269C7.14333 8.92136 6.82302 8.50644 6.55186 8.02941C6.13663 7.29886 5.839 6.44699 5.69855 6.0042C5.57989 5.6302 5.23663 5.37891 4.84432 5.37891H3.31875C3.10345 5.37891 2.90545 5.47734 2.77537 5.64898C2.6454 5.82064 2.6043 6.03798 2.6627 6.2453L2.94729 7.25534C3.1217 7.87447 3.36146 8.47719 3.65991 9.04679C3.74998 9.21874 3.96239 9.28515 4.13444 9.19505C4.30646 9.10494 4.3728 8.89246 4.2827 8.72047C4.0069 8.19401 3.78531 7.63692 3.62408 7.06468L3.34723 6.08203H4.84435C4.92884 6.08203 5.00277 6.13617 5.02833 6.21678C5.17714 6.68587 5.49355 7.59034 5.94063 8.37682C6.30745 9.02215 6.7525 9.55976 7.06131 9.89712C7.23048 10.0819 7.49078 10.1428 7.72443 10.0519C7.95836 9.96107 8.10953 9.74018 8.10953 9.48927V7.28771C8.10953 6.88873 7.98652 6.50654 7.75389 6.18251L7.68171 6.08203H9.67982V8.90139C9.67982 9.10765 9.78339 9.29732 9.95688 9.40883C10.1303 9.52038 10.3459 9.53582 10.5336 9.45014L10.6785 9.38398C10.7453 9.35353 10.8046 9.31103 10.8549 9.25763C11.6179 8.44741 12.2315 7.51992 12.6787 6.50092L12.8383 6.1374C12.8529 6.10393 12.886 6.08235 12.9226 6.08235H12.9227L14.4289 6.08407C14.4341 6.08407 14.4418 6.08411 14.4484 6.09514C14.4551 6.10622 14.4514 6.11304 14.449 6.11757L13.7531 7.41962C13.6701 7.57491 13.5767 7.72675 13.4755 7.87096L12.6612 9.03139C12.4147 9.38268 12.4613 9.8524 12.7721 10.1483L13.3684 10.7162C13.8077 11.1345 14.191 11.6089 14.5077 12.1261L14.6861 12.4175C14.6904 12.4245 14.7034 12.4459 14.6872 12.4749C14.6709 12.5039 14.6459 12.5039 14.6377 12.5039H13.3373C13.1702 12.5039 13.0076 12.4352 12.8911 12.3154L11.5908 10.9784C11.2844 10.6633 10.8956 10.447 10.4663 10.3527C10.2739 10.3104 10.0752 10.357 9.92159 10.4806C9.76795 10.6042 9.67985 10.7881 9.67985 10.9852V12.2989C9.67985 12.4119 9.58788 12.5039 9.47479 12.5039C8.46714 12.5039 7.47141 12.1668 6.671 11.5546C6.34855 11.308 6.041 11.036 5.75691 10.7462C5.62099 10.6076 5.39842 10.6053 5.25973 10.7413C5.12107 10.8772 5.11889 11.0998 5.2548 11.2385C5.56218 11.552 5.89493 11.8462 6.24382 12.1131C7.16614 12.8185 8.31357 13.207 9.47475 13.207C9.97552 13.207 10.3829 12.7996 10.3829 12.2989V11.0559C10.6507 11.1274 10.8928 11.2692 11.0868 11.4687L12.3871 12.8057C12.6351 13.0607 12.9815 13.207 13.3373 13.207H14.6377C14.9124 13.207 15.1664 13.0582 15.3006 12.8186C15.4348 12.579 15.4291 12.2846 15.2857 12.0504Z" fill="#C93E20" stroke="#C93E20" stroke-width="0.5"/>
<path d="M4.92392 9.75766L4.92002 9.75221C4.80685 9.59443 4.58726 9.55819 4.42945 9.67135C4.27166 9.78452 4.23545 10.0041 4.34859 10.1619C4.34873 10.1622 4.35084 10.1651 4.35098 10.1653L4.6382 9.96252L4.35249 10.1674C4.42115 10.2631 4.52904 10.3141 4.63852 10.3141C4.70939 10.3141 4.78101 10.2927 4.84306 10.2482C5.00084 10.1351 5.03705 9.91544 4.92392 9.75766Z" fill="#C93E20" stroke="#C93E20" stroke-width="0.5"/>
<path d="M7.20215 15.6094H4.33691C4.14278 15.6094 3.98535 15.7668 3.98535 15.9609C3.98535 16.1551 4.14278 16.3125 4.33691 16.3125H7.20215C7.39632 16.3125 7.55371 16.1551 7.55371 15.9609C7.55371 15.7668 7.39628 15.6094 7.20215 15.6094Z" fill="#C93E20" stroke="#C93E20" stroke-width="0.5"/>
<path d="M8.80204 15.6094H8.79785C8.60372 15.6094 8.44629 15.7668 8.44629 15.9609C8.44629 16.1551 8.60372 16.3125 8.79785 16.3125H8.80204C8.9962 16.3125 9.1536 16.1551 9.1536 15.9609C9.1536 15.7668 8.99617 15.6094 8.80204 15.6094Z" fill="#C93E20" stroke="#C93E20" stroke-width="0.5"/>
<path d="M15.6797 0H2.32031C1.04087 0 0 1.04087 0 2.32031V15.6797C0 16.9591 1.04087 18 2.32031 18H15.6797C16.9591 18 18 16.9591 18 15.6797V2.32031C18 1.04087 16.9591 0 15.6797 0ZM17.2969 15.6797C17.2969 16.5714 16.5714 17.2969 15.6797 17.2969H2.32031C1.42861 17.2969 0.703125 16.5714 0.703125 15.6797V2.32031C0.703125 1.42861 1.42861 0.703125 2.32031 0.703125H15.6797C16.5714 0.703125 17.2969 1.42861 17.2969 2.32031V15.6797Z" fill="#C93E20" stroke="#C93E20" stroke-width="0.5"/>
</g>
<defs>
<clipPath id="clip0">
<rect width="18" height="18" fill="white"/>
</clipPath>
</defs>
</svg>
