<svg width="21" height="21" viewBox="0 0 21 21" fill="none" xmlns="http://www.w3.org/2000/svg">
<g clip-path="url(#clip0)">
<path d="M17.0496 3.55901C15.2665 1.77603 12.8956 0.793945 10.374 0.793945C8.3906 0.793945 6.4923 1.40233 4.88439 2.55352C4.71717 2.67319 4.67864 2.9057 4.79831 3.07291C4.91812 3.24013 5.15063 3.27852 5.3177 3.15885C6.79853 2.09883 8.54691 1.53843 10.374 1.53843C15.169 1.53843 19.0702 5.43956 19.0702 10.2348C19.0702 15.0299 15.169 18.931 10.374 18.931C8.91319 18.931 7.46857 18.5618 6.19625 17.8633C6.11177 17.8171 6.01275 17.8053 5.91998 17.8303L1.77616 18.9502L2.90598 14.9181C2.93331 14.8207 2.91979 14.7164 2.86861 14.6293C2.08937 13.3014 1.67758 11.7819 1.67758 10.2348C1.67758 8.40762 2.23798 6.65924 3.298 5.17856C3.41767 5.01148 3.37913 4.77898 3.21206 4.65931C3.04484 4.53964 2.81234 4.57802 2.69267 4.74524C1.54148 6.35301 0.933092 8.2513 0.933092 10.2348C0.933092 11.8609 1.3523 13.4591 2.14695 14.8678L0.88249 19.3801C0.846283 19.509 0.882344 19.6475 0.976423 19.7426C1.04738 19.8139 1.14291 19.8528 1.24092 19.8528C1.27334 19.8528 1.30592 19.8486 1.33805 19.8398L5.97116 18.5877C7.32011 19.2998 8.83903 19.6755 10.3738 19.6755C12.8956 19.6755 15.2665 18.6936 17.0495 16.9103C18.8326 15.1273 19.8147 12.7565 19.8147 10.2347C19.8147 7.71301 18.8327 5.34229 17.0496 3.55901Z" fill="white" stroke="white" stroke-width="0.344118"/>
<path d="M16.4755 14.7469C16.6465 14.861 16.8777 14.8149 16.9918 14.6439C17.8643 13.3367 18.3255 11.812 18.3255 10.2345C18.3255 8.11035 17.4984 6.11332 15.9967 4.61156C14.4949 3.10979 12.498 2.28271 10.3738 2.28271C8.24951 2.28271 6.25248 3.10979 4.75072 4.61156C3.24895 6.11332 2.42188 8.11035 2.42188 10.2346C2.42188 11.6494 2.79833 13.0386 3.51054 14.2522L3.75075 14.6617L3.02299 17.2589C2.98678 17.3878 3.0227 17.5262 3.11692 17.6213C3.21115 17.7164 3.34928 17.7536 3.47855 17.7187L6.15986 16.994L6.5542 17.2105C7.71717 17.849 9.03791 18.1863 10.3736 18.1863C11.9513 18.1863 13.476 17.7251 14.7831 16.8525C14.9541 16.7385 15.0002 16.5073 14.886 16.3363C14.7719 16.1653 14.5408 16.1192 14.3698 16.2334C13.1855 17.024 11.8037 17.4419 10.3736 17.4419C9.16281 17.4419 7.96596 17.1362 6.91249 16.5579L6.3867 16.2691C6.30236 16.2229 6.20334 16.2111 6.11042 16.2361L3.91652 16.8291L4.51036 14.7101C4.53755 14.6127 4.52417 14.5084 4.47299 14.4213L4.15251 13.8753C3.50734 12.7759 3.16636 11.5169 3.16636 10.2345C3.16636 6.26033 6.39964 3.0272 10.3738 3.0272C14.3479 3.0272 17.581 6.26033 17.581 10.2346C17.581 11.6644 17.1631 13.0462 16.3725 14.2307C16.2584 14.4017 16.3045 14.6327 16.4755 14.7469Z" fill="white" stroke="white" stroke-width="0.344118"/>
<path d="M9.01304 9.09145L9.03762 9.0628C9.37103 8.68853 9.28684 8.24896 9.15743 7.94622C8.96622 7.49909 8.46602 6.35619 8.41862 6.24801C8.34475 6.0613 8.09828 5.76554 7.60259 5.75522C7.2161 5.74737 7.08901 5.75827 7.05935 5.76191C7.0563 5.7622 7.05324 5.76264 7.05033 5.76307C6.99333 5.77136 5.65268 5.98831 5.42119 7.99769C5.31475 8.92147 5.74254 10.0219 6.69263 11.2688C7.74451 12.6491 8.71147 13.4711 10.1414 14.2002C10.8535 14.5633 11.8936 14.9883 12.8618 14.9883C12.8932 14.9883 12.9246 14.9879 12.9558 14.9868C14.0433 14.9551 14.624 14.5032 14.9196 14.1297C15.2334 13.7331 15.299 13.3424 15.3085 13.2747C15.3147 13.2316 15.3298 13.0958 15.3394 12.742C15.3528 12.2464 15.069 11.9861 14.886 11.9033C14.7827 11.852 13.7168 11.3236 13.2799 11.1117C12.9848 10.9685 12.5511 10.8868 12.1607 11.3104C12.1586 11.3125 12.1567 11.3147 12.1549 11.3166C12.1021 11.3627 12.0499 11.4315 11.8912 11.6438C11.7935 11.7745 11.5985 12.0354 11.5156 12.1225C11.3406 12.1348 10.7552 11.877 9.92533 11.2345C9.4023 10.8294 8.84379 10.1987 8.5348 9.6645C8.53174 9.65694 8.52985 9.64313 8.53073 9.63615C8.65883 9.50441 8.86734 9.2623 9.01304 9.09145ZM9.46947 11.8231C9.71754 12.0152 10.2039 12.373 10.6742 12.6116C10.8965 12.7243 11.5731 13.0676 11.9903 12.6984C12.1054 12.5965 12.269 12.3817 12.4874 12.0895C12.5504 12.0053 12.6277 11.9019 12.6577 11.8661C12.6772 11.8484 12.6933 11.8309 12.708 11.8149C12.775 11.7422 12.8056 11.7091 12.9549 11.7815C13.4033 11.999 14.5221 12.5539 14.5622 12.5737C14.576 12.5875 14.5976 12.6324 14.5951 12.7218C14.5868 13.0304 14.5747 13.1419 14.5723 13.1629C14.5707 13.1706 14.5714 13.1659 14.5705 13.1743C14.5661 13.1996 14.5193 13.4492 14.3142 13.6942C14.0248 14.04 13.5605 14.2245 12.9341 14.2427C12.0965 14.2675 11.1373 13.8724 10.4795 13.537C9.14114 12.8544 8.27524 12.1174 7.28458 10.8174C6.46681 9.74433 6.07814 8.7986 6.16059 8.08276C6.31588 6.73498 7.05455 6.52326 7.15357 6.50087C7.18847 6.49869 7.30654 6.49375 7.58718 6.49956C7.6766 6.50145 7.72037 6.52515 7.7336 6.53955C7.75207 6.58172 8.27684 7.78046 8.47271 8.23878C8.57057 8.4678 8.51051 8.53527 8.48158 8.56769C8.47634 8.57351 8.47184 8.57874 8.46791 8.5831L8.44653 8.60826C8.23148 8.86025 8.08011 9.03169 7.99664 9.11733C7.72182 9.39971 7.74785 9.79057 7.88861 10.0343C8.2466 10.6546 8.8672 11.3566 9.46947 11.8231Z" fill="white" stroke="white" stroke-width="0.344118"/>
<path d="M3.96114 4.19465C4.05057 4.19465 4.14029 4.16266 4.21154 4.09781C4.36363 3.95952 4.37497 3.72411 4.23669 3.57201C4.09826 3.41992 3.86299 3.40872 3.71075 3.547L3.71061 3.54715C3.55851 3.68543 3.54746 3.9207 3.68574 4.07294C3.75917 4.15364 3.85994 4.19465 3.96114 4.19465Z" fill="white" stroke="white" stroke-width="0.344118"/>
<path d="M15.4577 15.344L15.4576 15.3443C15.3193 15.4964 15.3306 15.7317 15.4827 15.8699C15.554 15.9348 15.6436 15.9668 15.733 15.9668C15.8342 15.9668 15.9351 15.9256 16.0085 15.8448C16.147 15.6927 16.1356 15.4573 15.9835 15.319C15.8314 15.1807 15.596 15.1919 15.4577 15.344Z" fill="white" stroke="white" stroke-width="0.344118"/>
</g>
<defs>
<clipPath id="clip0">
<rect width="20.6471" height="20.6471" fill="white"/>
</clipPath>
</defs>
</svg>
