<svg width="18" height="18" viewBox="0 0 18 18" fill="none" xmlns="http://www.w3.org/2000/svg">
<g clip-path="url(#clip0)">
<path d="M14.8638 3.10271C13.3093 1.54831 11.2424 0.692139 9.04399 0.692139C7.31492 0.692139 5.65999 1.22252 4.25822 2.22613C4.11244 2.33045 4.07885 2.53315 4.18318 2.67893C4.28763 2.82471 4.49033 2.85818 4.63598 2.75385C5.92696 1.82973 7.45119 1.34118 9.04399 1.34118C13.2243 1.34118 16.6253 4.74216 16.6253 8.92263C16.6253 13.103 13.2243 16.504 9.04399 16.504C7.77051 16.504 6.5111 16.1821 5.4019 15.5731C5.32825 15.5328 5.24192 15.5225 5.16105 15.5443L1.54849 16.5207L2.53345 13.0055C2.55729 12.9206 2.5455 12.8297 2.50088 12.7537C1.82154 11.5961 1.46254 10.2714 1.46254 8.92263C1.46254 7.3297 1.95109 5.80547 2.87521 4.51462C2.97954 4.36897 2.94595 4.16627 2.80029 4.06194C2.65451 3.95761 2.45182 3.99108 2.34749 4.13686C1.34389 5.5385 0.813502 7.19343 0.813502 8.92263C0.813502 10.3402 1.17897 11.7335 1.87174 12.9616L0.769388 16.8954C0.737823 17.0079 0.769261 17.1285 0.851278 17.2114C0.91314 17.2737 0.996424 17.3075 1.08186 17.3075C1.11013 17.3075 1.13853 17.3038 1.16654 17.2962L5.20567 16.2047C6.38167 16.8254 7.70586 17.153 9.04387 17.153C11.2424 17.153 13.3093 16.297 14.8637 14.7423C16.4182 13.1879 17.2744 11.121 17.2744 8.9225C17.2744 6.72414 16.4183 4.65736 14.8638 3.10271Z" fill="#514947" stroke="#514947" stroke-width="0.3"/>
<path d="M14.3632 12.8564C14.5123 12.9559 14.7138 12.9158 14.8133 12.7667C15.5739 11.6271 15.976 10.2978 15.976 8.92252C15.976 7.07073 15.255 5.32974 13.9458 4.02051C12.6365 2.71128 10.8957 1.99023 9.04374 1.99023C7.19183 1.99023 5.45083 2.71128 4.1416 4.02051C2.83237 5.32974 2.11133 7.07073 2.11133 8.92265C2.11133 10.1561 2.43952 11.3672 3.06042 12.4252L3.26984 12.7821L2.63538 15.0464C2.60381 15.1587 2.63512 15.2794 2.71727 15.3623C2.79941 15.4452 2.91984 15.4777 3.03253 15.4473L5.37008 14.8155L5.71387 15.0042C6.72774 15.5608 7.87915 15.8549 9.04362 15.8549C10.419 15.8549 11.7483 15.4528 12.8878 14.6921C13.0368 14.5927 13.077 14.3912 12.9775 14.2421C12.878 14.093 12.6766 14.0528 12.5275 14.1524C11.495 14.8416 10.2904 15.2059 9.04362 15.2059C7.98804 15.2059 6.94464 14.9394 6.02622 14.4353L5.56784 14.1835C5.49431 14.1432 5.40799 14.133 5.32698 14.1548L3.41435 14.6717L3.93206 12.8244C3.95576 12.7394 3.9441 12.6485 3.89948 12.5726L3.62009 12.0966C3.05763 11.1381 2.76037 10.0406 2.76037 8.92252C2.76037 5.4579 5.57912 2.63927 9.04374 2.63927C12.5084 2.63927 15.327 5.4579 15.327 8.92265C15.327 10.1691 14.9627 11.3738 14.2734 12.4064C14.1739 12.5555 14.2141 12.7569 14.3632 12.8564Z" fill="#514947" stroke="#514947" stroke-width="0.3"/>
<path d="M7.85764 7.92582L7.87906 7.90085C8.16973 7.57456 8.09634 7.19134 7.98351 6.92742C7.81682 6.53761 7.38074 5.54124 7.33942 5.44692C7.27502 5.28416 7.06016 5.02632 6.62801 5.01732C6.29107 5.01047 6.18028 5.01998 6.15442 5.02315C6.15175 5.0234 6.14909 5.02378 6.14656 5.02416C6.09687 5.03139 4.92809 5.22052 4.72628 6.97229C4.63349 7.77763 5.00643 8.73699 5.83471 9.82401C6.75173 11.0274 7.59472 11.744 8.84133 12.3796C9.4621 12.6961 10.3689 13.0667 11.213 13.0667C11.2404 13.0667 11.2678 13.0663 11.2949 13.0654C12.243 13.0378 12.7493 12.6438 13.007 12.3181C13.2805 11.9724 13.3377 11.6318 13.3459 11.5727C13.3514 11.5352 13.3646 11.4168 13.3729 11.1084C13.3846 10.6763 13.1372 10.4493 12.9777 10.3772C12.8876 10.3325 11.9584 9.8718 11.5774 9.6871C11.3202 9.56224 10.9421 9.491 10.6017 9.86026C10.6 9.86216 10.5983 9.86407 10.5967 9.86571C10.5506 9.9059 10.5051 9.96586 10.3668 10.1509C10.2816 10.2649 10.1117 10.4923 10.0394 10.5682C9.88677 10.579 9.37641 10.3543 8.65296 9.79409C8.19699 9.44092 7.71008 8.89114 7.4407 8.42541C7.43804 8.41881 7.43639 8.40677 7.43716 8.40069C7.54884 8.28584 7.73062 8.07477 7.85764 7.92582ZM8.25555 10.3072C8.47181 10.4747 8.89584 10.7867 9.3058 10.9947C9.49963 11.0929 10.0895 11.3922 10.4532 11.0704C10.5536 10.9815 10.6962 10.7943 10.8866 10.5395C10.9415 10.4661 11.0089 10.3759 11.035 10.3448C11.052 10.3293 11.0661 10.3141 11.0789 10.3001C11.1373 10.2368 11.1639 10.2079 11.2941 10.271C11.6851 10.4606 12.6604 10.9444 12.6954 10.9616C12.7074 10.9736 12.7262 11.0128 12.724 11.0908C12.7168 11.3598 12.7063 11.457 12.7041 11.4753C12.7027 11.482 12.7034 11.4779 12.7026 11.4853C12.6988 11.5073 12.658 11.7249 12.4791 11.9385C12.2269 12.2399 11.8221 12.4008 11.276 12.4166C10.5458 12.4383 9.70955 12.0939 9.13606 11.8014C7.96932 11.2064 7.21443 10.5638 6.35078 9.43053C5.63785 8.495 5.299 7.67052 5.37088 7.04645C5.50627 5.87146 6.15023 5.68689 6.23656 5.66737C6.26698 5.66547 6.36992 5.66116 6.61458 5.66623C6.69254 5.66788 6.73069 5.68854 6.74223 5.70109C6.75833 5.73785 7.21582 6.7829 7.38658 7.18247C7.47189 7.38213 7.41953 7.44094 7.39431 7.46921C7.38974 7.47428 7.38582 7.47885 7.38239 7.48265L7.36376 7.50458C7.17627 7.72427 7.04431 7.87372 6.97155 7.94839C6.73196 8.19457 6.75465 8.53531 6.87736 8.74777C7.18946 9.28855 7.73049 9.90058 8.25555 10.3072Z" fill="#514947" stroke="#514947" stroke-width="0.3"/>
<path d="M3.45346 3.6567C3.53142 3.6567 3.60963 3.62881 3.67175 3.57227C3.80434 3.45172 3.81423 3.24649 3.69368 3.11389C3.573 2.9813 3.36789 2.97154 3.23517 3.09209L3.23504 3.09222C3.10244 3.21277 3.09281 3.41787 3.21336 3.5506C3.27738 3.62095 3.36523 3.6567 3.45346 3.6567Z" fill="#514947" stroke="#514947" stroke-width="0.3"/>
<path d="M13.4761 13.3767L13.4759 13.377C13.3554 13.5096 13.3653 13.7147 13.4979 13.8352C13.56 13.8918 13.6381 13.9197 13.716 13.9197C13.8043 13.9197 13.8922 13.8838 13.9563 13.8133C14.0769 13.6807 14.0671 13.4755 13.9345 13.3549C13.8019 13.2344 13.5966 13.2441 13.4761 13.3767Z" fill="#514947" stroke="#514947" stroke-width="0.3"/>
</g>
<defs>
<clipPath id="clip0">
<rect width="18" height="18" fill="white" transform="translate(0 -0.00012207)"/>
</clipPath>
</defs>
</svg>
