<svg width="22" height="21" viewBox="0 0 22 21" fill="none" xmlns="http://www.w3.org/2000/svg">
<g clip-path="url(#clip0)">
<path d="M11.0883 15.2827C10.8656 15.2827 10.6851 15.4633 10.6851 15.686C10.6851 15.6865 10.6851 15.6871 10.6851 15.6876C10.6851 15.6881 10.6851 15.6887 10.6851 15.6892V15.6924C10.6851 15.9152 10.8656 16.0957 11.0883 16.0957C11.311 16.0957 11.4916 15.9152 11.4916 15.6924C11.4916 15.6919 11.4916 15.6914 11.4916 15.6908C11.4916 15.6903 11.4916 15.6898 11.4916 15.6892C11.4916 15.6886 11.4916 15.6881 11.4916 15.6876C11.4916 15.6871 11.4916 15.6865 11.4916 15.686C11.4916 15.4633 11.311 15.2827 11.0883 15.2827Z" fill="white" stroke="white" stroke-width="0.573529"/>
<path d="M17.4597 0.146973H4.71662C2.53747 0.146973 0.764648 1.9198 0.764648 4.09895V16.8421C0.764648 19.0212 2.53747 20.794 4.71662 20.794H11.0882C11.3109 20.794 11.4914 20.6135 11.4914 20.3908V17.2655C11.4914 17.0428 11.3109 16.8622 11.0882 16.8622C10.8655 16.8622 10.6849 17.0428 10.6849 17.2655V19.9875H4.71662C2.98223 19.9875 1.57117 18.5764 1.57117 16.8421V4.09895C1.57117 2.36456 2.98223 0.953498 4.71662 0.953498H17.4597C19.1941 0.953498 20.6052 2.36456 20.6052 4.09895V16.8421C20.6052 18.5764 19.1941 19.9875 17.4597 19.9875H14.8788V12.87H17.217C17.4241 12.87 17.5975 12.7131 17.6183 12.5071L17.9082 9.62555C17.9197 9.51211 17.8826 9.39919 17.8061 9.31467C17.7296 9.23015 17.621 9.18192 17.507 9.18192H14.8788V7.66883C14.8788 7.39498 14.9661 7.29315 15.2007 7.29315H17.4889C17.7116 7.29315 17.8921 7.11261 17.8921 6.88989V4.08076C17.8921 3.85804 17.7116 3.6775 17.4889 3.6775H14.4839C12.7812 3.6775 11.8782 4.42539 11.4205 5.05279C10.7804 5.93021 10.6849 6.96643 10.6849 7.506V9.19998H8.70889C8.48616 9.19998 8.30562 9.38052 8.30562 9.60324V12.4667C8.30562 12.6894 8.48616 12.8699 8.70889 12.8699H10.6849V14.0192C10.6849 14.2419 10.8654 14.4225 11.0881 14.4225C11.3109 14.4225 11.4914 14.2419 11.4914 14.0192V12.4667C11.4914 12.2439 11.3109 12.0634 11.0881 12.0634H9.11215V10.0065H11.0881C11.3109 10.0065 11.4914 9.82593 11.4914 9.6032V7.50596C11.4914 6.59732 11.783 4.48398 14.4839 4.48398H17.0856V6.48659H15.2007C14.6802 6.48659 14.0723 6.79621 14.0723 7.66879V9.58514C14.0723 9.80786 14.2529 9.9884 14.4756 9.9884H17.0611L16.8523 12.0634H14.4756C14.2529 12.0634 14.0723 12.2439 14.0723 12.4667V20.3908C14.0723 20.6135 14.2529 20.794 14.4756 20.794H17.4597C19.6389 20.794 21.4117 19.0212 21.4117 16.8421V4.09895C21.4117 1.9198 19.6389 0.146973 17.4597 0.146973Z" fill="white" stroke="white" stroke-width="0.573529"/>
<path d="M3.10346 4.28027C2.88074 4.28027 2.7002 4.46081 2.7002 4.68354V8.05078C2.7002 8.2735 2.88074 8.45404 3.10346 8.45404C3.32618 8.45404 3.50672 8.2735 3.50672 8.05078V4.68354C3.50672 4.46081 3.32618 4.28027 3.10346 4.28027Z" fill="white" stroke="white" stroke-width="0.573529"/>
<path d="M3.10346 9.39697C2.88074 9.39697 2.7002 9.57751 2.7002 9.80024V9.80499C2.7002 10.0277 2.88074 10.2083 3.10346 10.2083C3.32618 10.2083 3.50672 10.0277 3.50672 9.80499V9.80024C3.50672 9.57751 3.32618 9.39697 3.10346 9.39697Z" fill="white" stroke="white" stroke-width="0.573529"/>
</g>
<defs>
<clipPath id="clip0">
<rect width="20.6471" height="20.6471" fill="white" transform="translate(0.764648 0.146973)"/>
</clipPath>
</defs>
</svg>
