<svg width="53" height="53" viewBox="0 0 53 53" fill="none" xmlns="http://www.w3.org/2000/svg">
<g clip-path="url(#clip0)">
<path d="M18.6763 47.5784C18.4691 47.3859 18.1842 47.2751 17.8925 47.2751C17.5996 47.2751 17.3148 47.3859 17.1085 47.5784C16.9011 47.7709 16.7837 48.0379 16.7837 48.3101C16.7837 48.5824 16.9012 48.8494 17.1085 49.0419C17.3137 49.2345 17.5997 49.3451 17.8925 49.3451C18.184 49.3451 18.469 49.2344 18.6763 49.0419C18.8826 48.8494 19.0013 48.5824 19.0013 48.3101C19.0013 48.0379 18.8826 47.7709 18.6763 47.5784Z" fill="#C93E20"/>
<path d="M49.335 10.8636L29.9466 0.836996C27.7887 -0.27911 25.2119 -0.279213 23.0535 0.836996L3.66499 10.8637C1.40424 12.0329 0 14.2577 0 16.67V22.3045C0 22.3069 0 22.3091 0 22.3115V36.33C0 38.7423 1.40424 40.9671 3.66499 42.1363L13.949 47.4546C14.4847 47.7317 15.1594 47.551 15.4562 47.0509C15.753 46.551 15.5595 45.9211 15.0238 45.6442L13.5126 44.8626C13.5154 44.8324 13.5176 44.8019 13.5176 44.7709V29.9172L22.9695 34.8052C23.7371 35.2021 24.5563 35.461 25.3914 35.5822V50.8061C24.957 50.7107 24.5319 50.5609 24.1284 50.3523L21.6654 49.0785C21.1298 48.8015 20.455 48.9821 20.1582 49.4822C19.8614 49.9822 20.0549 50.6121 20.5906 50.889L23.0535 52.1627C24.1325 52.7209 25.3161 52.9999 26.5 52.9999C27.6838 52.9999 28.8675 52.7209 29.9466 52.1628L49.335 42.1361C51.5958 40.9669 53 38.7421 53 36.3298V22.3114C53 22.309 53 22.3068 53 22.3044V16.6698C53 14.2576 51.5958 12.0328 49.335 10.8636ZM50.7824 16.6698V21.707L41.7002 26.4039V21.6731C41.7002 21.0978 41.5713 20.54 41.3345 20.0289L50.5432 15.2666C50.698 15.7139 50.7824 16.186 50.7824 16.6698ZM41.5202 9.18853L48.2604 12.6742C48.6879 12.8954 49.0692 13.1731 49.3999 13.4916L39.9509 18.378C39.7811 18.2572 39.6019 18.1462 39.4119 18.048L35.6327 16.0937C38.9587 15.9887 41.6301 13.4322 41.6301 10.3027C41.6301 9.92163 41.5925 9.54918 41.5202 9.18853ZM36.9315 6.85395C38.1308 7.3118 39.4124 8.45823 39.4124 10.3028C39.4124 12.3574 37.6216 14.0288 35.4204 14.0288H31.6398L31.6322 14.0249C31.7049 13.7822 31.7446 13.5269 31.7446 13.2629C31.7446 11.9491 31.18 10.7566 30.2662 9.88375L32.5726 7.69191C33.9573 6.37591 35.7321 6.3963 36.9315 6.85395ZM24.1284 2.64748C25.6137 1.87929 27.3869 1.8795 28.8719 2.64748L33.1859 4.87845C32.383 5.17161 31.6357 5.62842 30.9904 6.24144L28.3725 8.72944C27.8081 8.53225 27.1977 8.42387 26.5604 8.42387H25.9731C25.4665 8.42387 24.9771 8.49332 24.514 8.62034L22.0109 6.24144C21.3656 5.62811 20.618 5.1714 19.8148 4.87825L24.1284 2.64748ZM29.5271 13.2629C29.5271 13.6853 29.1591 14.0288 28.7066 14.0288H23.827C23.3745 14.0288 23.0066 13.6853 23.0066 13.2629C23.0066 11.7361 24.3375 10.4938 25.9732 10.4938H26.5606C28.1961 10.4939 29.5271 11.736 29.5271 13.2629ZM16.0694 6.85395C17.2687 6.3961 19.0438 6.37591 20.4284 7.6918L22.5075 9.6675C21.4531 10.5539 20.7889 11.8372 20.7889 13.2628C20.7889 13.5282 20.829 13.7849 20.9024 14.0287H17.5807C15.3794 14.0287 13.5886 12.3573 13.5886 10.3027C13.5885 8.45823 14.8702 7.3118 16.0694 6.85395ZM11.2998 43.7181L4.73974 40.3256C3.18401 39.5211 2.2176 37.99 2.2176 36.33V24.0735L11.2998 28.7704V43.7181ZM11.2998 21.6732V26.4039L2.2176 21.707V16.6699C2.2176 16.1752 2.30522 15.6926 2.46691 15.2367L11.6795 20.0011C11.4341 20.5197 11.2998 21.0873 11.2998 21.6732ZM13.0769 18.3574L3.62373 13.4687C3.94901 13.1598 4.32242 12.8902 4.73974 12.6743L11.4808 9.18822C11.4085 9.54898 11.3708 9.92153 11.3708 10.3029C11.3708 13.4322 14.0419 15.9885 17.3674 16.0939L13.5882 18.0483C13.4088 18.1409 13.2383 18.2445 13.0769 18.3574ZM25.3913 33.4728C24.9277 33.3749 24.4741 33.217 24.0443 32.9947L13.5176 27.5508V21.6732C13.5176 21.4448 13.5585 21.222 13.6342 21.0119L22.9745 25.8421C23.7407 26.2384 24.558 26.4984 25.3914 26.6221V33.4728H25.3913ZM24.0493 24.0316L15.3216 19.5182L21.9336 16.0987H31.0667L37.7128 19.5357L29.019 24.0316C27.4632 24.8362 25.6052 24.8362 24.0493 24.0316ZM30.0937 25.8422L39.376 21.042C39.445 21.2433 39.4827 21.4558 39.4827 21.6735V27.551L28.9559 32.9949C28.5261 33.2172 28.0725 33.375 27.6089 33.473V26.6314H27.6088C28.4657 26.5119 29.3067 26.2492 30.0937 25.8422ZM50.7824 36.3298C50.7824 37.9899 49.8161 39.5209 48.2603 40.3255L41.7002 43.718V40.8166C41.7002 40.245 41.2037 39.7817 40.5914 39.7817C39.9791 39.7817 39.4826 40.245 39.4826 40.8166V44.7706C39.4826 44.8015 39.4847 44.8321 39.4875 44.8623L28.8719 50.3523C28.4684 50.5609 28.0433 50.7107 27.6088 50.8061V35.5823C28.4438 35.461 29.263 35.2022 30.0307 34.8053L39.4827 29.9173V33.0202C39.4827 33.5918 39.9792 34.0552 40.5915 34.0552C41.2038 34.0552 41.7003 33.5918 41.7003 33.0202V28.7704L50.7825 24.0735V36.3298H50.7824Z" fill="#C93E20"/>
<path d="M41.3757 36.3826C41.1683 36.1899 40.8834 36.0793 40.5917 36.0793C40.3 36.0793 40.014 36.1901 39.8077 36.3826C39.6004 36.5751 39.4829 36.8421 39.4829 37.1143C39.4829 37.3866 39.6005 37.6536 39.8077 37.8461C40.014 38.0397 40.3 38.1493 40.5917 38.1493C40.8834 38.1493 41.1694 38.0396 41.3757 37.8461C41.5818 37.6536 41.7005 37.3866 41.7005 37.1143C41.7005 36.8421 41.5818 36.5751 41.3757 36.3826Z" fill="#C93E20"/>
</g>
<defs>
<clipPath id="clip0">
<rect width="53" height="53" fill="white"/>
</clipPath>
</defs>
</svg>
