<svg width="18" height="18" viewBox="0 0 18 18" fill="none" xmlns="http://www.w3.org/2000/svg">
<g clip-path="url(#clip0)">
<path d="M12.7266 0H5.27344C2.36566 0 0 2.36566 0 5.27344V12.7266C0 15.6343 2.36566 18 5.27344 18H12.7266C15.6343 18 18 15.6343 18 12.7266V5.27344C18 2.36566 15.6343 0 12.7266 0ZM17.2969 12.7266C17.2969 15.2466 15.2466 17.2969 12.7266 17.2969H5.27344C2.75337 17.2969 0.703125 15.2466 0.703125 12.7266V5.27344C0.703125 2.75337 2.75337 0.703125 5.27344 0.703125H12.7266C15.2466 0.703125 17.2969 2.75337 17.2969 5.27344V12.7266Z" fill="#C93E20" stroke="#C93E20" stroke-width="0.3"/>
<path d="M12.7266 1.54688H5.27344C3.21859 1.54688 1.54688 3.21859 1.54688 5.27344V12.7266C1.54688 14.7814 3.21859 16.4531 5.27344 16.4531H7.41797C7.61214 16.4531 7.76953 16.2957 7.76953 16.1016C7.76953 15.9074 7.61214 15.75 7.41797 15.75H5.27344C3.60633 15.75 2.25 14.3937 2.25 12.7266V5.27344C2.25 3.60633 3.60633 2.25 5.27344 2.25H12.7266C14.3937 2.25 15.75 3.60633 15.75 5.27344V12.7266C15.75 14.3937 14.3937 15.75 12.7266 15.75H10.6055C10.4113 15.75 10.2539 15.9074 10.2539 16.1016C10.2539 16.2957 10.4113 16.4531 10.6055 16.4531H12.7266C14.7814 16.4531 16.4531 14.7814 16.4531 12.7266V5.27344C16.4531 3.21859 14.7814 1.54688 12.7266 1.54688Z" fill="#C93E20" stroke="#C93E20" stroke-width="0.3"/>
<path d="M9.24855 15.853C9.18316 15.7876 9.09246 15.75 9 15.75C8.90754 15.75 8.81684 15.7876 8.75145 15.853C8.68605 15.9184 8.64844 16.0091 8.64844 16.1016C8.64844 16.194 8.68605 16.2847 8.75145 16.3501C8.81684 16.4155 8.90754 16.4531 9 16.4531C9.09246 16.4531 9.18316 16.4155 9.24855 16.3501C9.31395 16.2847 9.35156 16.194 9.35156 16.1016C9.35156 16.0091 9.31395 15.9184 9.24855 15.853Z" fill="#C93E20" stroke="#C93E20" stroke-width="0.3"/>
<path d="M6.1814 5.47423C6.04861 5.33255 5.82618 5.3253 5.68446 5.45802L5.66889 5.47268C5.52766 5.60592 5.5212 5.82843 5.65447 5.96965C5.72363 6.04295 5.81683 6.07994 5.91024 6.07994C5.99679 6.07994 6.08352 6.04816 6.15144 5.98407L6.16519 5.97116C6.30687 5.83841 6.31415 5.61591 6.1814 5.47423Z" fill="#C93E20" stroke="#C93E20" stroke-width="0.3"/>
<path d="M9 4.14844C8.22783 4.14844 7.45931 4.33445 6.77753 4.68636C6.60502 4.77541 6.53734 4.98748 6.62639 5.16002C6.71548 5.33254 6.92754 5.40018 7.10005 5.31116C7.69085 5.00618 8.3301 4.85156 9 4.85156C11.2874 4.85156 13.1484 6.71256 13.1484 9C13.1484 11.2874 11.2874 13.1484 9 13.1484C6.71256 13.1484 4.85156 11.2874 4.85156 9C4.85156 8.28214 5.03771 7.57487 5.38991 6.95468C5.48578 6.78586 5.42665 6.57127 5.25779 6.47536C5.08894 6.37952 4.87438 6.43862 4.77847 6.60748C4.3663 7.33331 4.14844 8.16064 4.14844 9C4.14844 11.6751 6.32486 13.8516 9 13.8516C11.6751 13.8516 13.8516 11.6751 13.8516 9C13.8516 6.32486 11.6751 4.14844 9 4.14844Z" fill="#C93E20" stroke="#C93E20" stroke-width="0.3"/>
<path d="M9 5.83594C7.25534 5.83594 5.83594 7.25534 5.83594 9C5.83594 10.7447 7.25534 12.1641 9 12.1641C10.7447 12.1641 12.1641 10.7447 12.1641 9C12.1641 7.25534 10.7447 5.83594 9 5.83594ZM9 11.4609C7.64304 11.4609 6.53906 10.357 6.53906 9C6.53906 7.64304 7.64304 6.53906 9 6.53906C10.357 6.53906 11.4609 7.64304 11.4609 9C11.4609 10.357 10.357 11.4609 9 11.4609Z" fill="#C93E20" stroke="#C93E20" stroke-width="0.3"/>
<path d="M13.6143 3.0498C12.8776 3.0498 12.2783 3.64911 12.2783 4.38574C12.2783 5.12237 12.8776 5.72168 13.6143 5.72168C14.3509 5.72168 14.9502 5.12237 14.9502 4.38574C14.9502 3.64911 14.3509 3.0498 13.6143 3.0498ZM13.6143 5.01855C13.2653 5.01855 12.9814 4.73467 12.9814 4.38574C12.9814 4.03682 13.2653 3.75293 13.6143 3.75293C13.9632 3.75293 14.2471 4.03682 14.2471 4.38574C14.2471 4.73467 13.9632 5.01855 13.6143 5.01855Z" fill="#C93E20" stroke="#C93E20" stroke-width="0.3"/>
</g>
<defs>
<clipPath id="clip0">
<rect width="18" height="18" fill="white"/>
</clipPath>
</defs>
</svg>
