<svg width="64" height="64" viewBox="0 0 64 64" fill="none" xmlns="http://www.w3.org/2000/svg">
<g clip-path="url(#clip0)">
<path d="M63.9951 52.8027L25.8285 64L0.00585938 37.0587L38.1565 25.8427L63.9951 52.8027Z" fill="#514947"/>
<path d="M63.9951 52.8027L25.8285 64L0.00585938 37.0587L38.1565 25.8427L63.9951 52.8027Z" fill="white"/>
<path d="M12.7656 50.3707L25.8282 64L37.0109 60.72L40.5282 50.3707H12.7656Z" fill="#514947"/>
<path d="M57.8293 46.3706L49.1813 37.3466L46.1133 46.3706H57.8293Z" fill="#514947"/>
<path d="M46.0631 34.0934L38.1565 25.844L0.00585938 37.0586L8.93248 46.372H41.8885L46.0631 34.0934Z" fill="#F2F2F2"/>
<path d="M41.7031 59.3426L63.9951 52.8026L61.6645 50.372H44.7525L41.7031 59.3426Z" fill="#F2F2F2"/>
<path d="M50.0071 18.0134C50.0071 27.9614 31.9937 48.372 31.9937 48.372C31.9937 48.372 13.9805 27.9614 13.9805 18.0134C13.9805 8.06537 22.0457 0 31.9937 0C41.9417 0 50.0071 8.06537 50.0071 18.0134Z" fill="#C93E20"/>
<path d="M40.5755 18.0134C40.5755 22.7534 36.7342 26.5948 31.9942 26.5948C27.2542 26.5948 23.4102 22.7534 23.4102 18.0134C23.4102 13.272 27.2542 9.43079 31.9942 9.43079C36.7342 9.43079 40.5755 13.272 40.5755 18.0134Z" fill="white"/>
</g>
<defs>
<clipPath id="clip0">
<rect width="64" height="64" fill="white"/>
</clipPath>
</defs>
</svg>
