<svg width="26" height="24" viewBox="0 0 26 24" fill="none" xmlns="http://www.w3.org/2000/svg">
<path d="M8.73254 15.5157H8.73364C8.73456 15.5157 8.73547 15.5155 8.73639 15.5155H21.4844C21.7982 15.5155 22.0742 15.3073 22.1604 15.0056L24.9729 5.1618C25.0335 4.94958 24.991 4.72144 24.8583 4.54529C24.7253 4.36914 24.5175 4.2655 24.2969 4.2655H7.11096L6.60834 2.0036C6.53674 1.68188 6.25146 1.453 5.92188 1.453H1.70312C1.31476 1.453 1 1.76776 1 2.15613C1 2.54449 1.31476 2.85925 1.70312 2.85925H5.35791C5.4469 3.26007 7.76318 13.6835 7.89648 14.2832C7.14923 14.608 6.625 15.3531 6.625 16.2186C6.625 17.3817 7.57129 18.328 8.73438 18.328H21.4844C21.8727 18.328 22.1875 18.0132 22.1875 17.6249C22.1875 17.2365 21.8727 16.9218 21.4844 16.9218H8.73438C8.34674 16.9218 8.03125 16.6063 8.03125 16.2186C8.03125 15.8315 8.34564 15.5166 8.73254 15.5157ZM23.3647 5.67175L20.9539 14.1093H9.29834L7.42334 5.67175H23.3647Z" fill="#F16840" stroke="#F16840" stroke-width="0.5"/>
<path d="M8.03125 20.4374C8.03125 21.6005 8.97754 22.5468 10.1406 22.5468C11.3037 22.5468 12.25 21.6005 12.25 20.4374C12.25 19.2743 11.3037 18.328 10.1406 18.328C8.97754 18.328 8.03125 19.2743 8.03125 20.4374ZM10.1406 19.7343C10.5283 19.7343 10.8438 20.0497 10.8438 20.4374C10.8438 20.825 10.5283 21.1405 10.1406 21.1405C9.75299 21.1405 9.4375 20.825 9.4375 20.4374C9.4375 20.0497 9.75299 19.7343 10.1406 19.7343Z" fill="#F16840" stroke="#F16840" stroke-width="0.5"/>
<path d="M17.9688 20.4374C17.9688 21.6005 18.915 22.5468 20.0781 22.5468C21.2412 22.5468 22.1875 21.6005 22.1875 20.4374C22.1875 19.2743 21.2412 18.328 20.0781 18.328C18.915 18.328 17.9688 19.2743 17.9688 20.4374ZM20.0781 19.7343C20.4658 19.7343 20.7812 20.0497 20.7812 20.4374C20.7812 20.825 20.4658 21.1405 20.0781 21.1405C19.6905 21.1405 19.375 20.825 19.375 20.4374C19.375 20.0497 19.6905 19.7343 20.0781 19.7343Z" fill="#F16840" stroke="#F16840" stroke-width="0.5"/>
</svg>
