<svg width="18" height="18" viewBox="0 0 18 18" fill="none" xmlns="http://www.w3.org/2000/svg">
<g clip-path="url(#clip0)">
<path d="M15.2857 12.0503L15.1073 11.7589C14.7587 11.1894 14.3368 10.6673 13.8533 10.2069L13.2569 9.63898C13.2002 9.58498 13.1917 9.49927 13.2367 9.43518L14.051 8.27474C14.1685 8.1074 14.2768 7.93116 14.3732 7.75095L15.0691 6.44887C15.1903 6.22197 15.1839 5.95468 15.0517 5.7339C14.9196 5.51315 14.687 5.38114 14.4297 5.38086L12.9235 5.37914C12.9232 5.37914 12.9229 5.37914 12.9226 5.37914C12.607 5.37914 12.3212 5.56578 12.1944 5.85476L12.0349 6.21828C11.6278 7.14574 11.0722 7.99139 10.3829 8.73283V6.07899C10.3829 5.69291 10.0688 5.37878 9.68277 5.37878H7.54945C7.19916 5.37878 6.91422 5.66376 6.91422 6.01406C6.91422 6.14783 6.95545 6.27597 7.03343 6.38453L7.1827 6.59248C7.32906 6.79628 7.4064 7.03665 7.4064 7.28759V9.22678C7.14333 8.92123 6.82302 8.50632 6.55186 8.02928C6.13663 7.29874 5.839 6.44687 5.69855 6.00407C5.57989 5.63008 5.23663 5.37878 4.84432 5.37878H3.31875C3.10345 5.37878 2.90545 5.47722 2.77537 5.64885C2.6454 5.82052 2.6043 6.03786 2.6627 6.24517L2.94729 7.25521C3.1217 7.87435 3.36146 8.47707 3.65991 9.04667C3.74998 9.21862 3.96239 9.28503 4.13444 9.19492C4.30646 9.10482 4.3728 8.89233 4.2827 8.72035C4.0069 8.19389 3.78531 7.6368 3.62408 7.06456L3.34723 6.08191H4.84435C4.92884 6.08191 5.00277 6.13605 5.02833 6.21666C5.17714 6.68575 5.49355 7.59022 5.94063 8.3767C6.30745 9.02203 6.7525 9.55964 7.06131 9.897C7.23048 10.0818 7.49078 10.1427 7.72443 10.0518C7.95836 9.96094 8.10953 9.74006 8.10953 9.48915V7.28759C8.10953 6.8886 7.98652 6.50642 7.75389 6.18239L7.68171 6.08191H9.67982V8.90126C9.67982 9.10753 9.78339 9.29719 9.95688 9.40871C10.1303 9.52026 10.3459 9.53569 10.5336 9.45002L10.6785 9.38385C10.7453 9.35341 10.8046 9.31091 10.8549 9.2575C11.6179 8.44729 12.2315 7.5198 12.6787 6.5008L12.8383 6.13728C12.8529 6.10381 12.886 6.08223 12.9226 6.08223H12.9227L14.4289 6.08395C14.4341 6.08395 14.4418 6.08398 14.4484 6.09502C14.4551 6.1061 14.4514 6.11292 14.449 6.11745L13.7531 7.4195C13.6701 7.57478 13.5767 7.72662 13.4755 7.87083L12.6612 9.03127C12.4147 9.38255 12.4613 9.85228 12.7721 10.1482L13.3684 10.7161C13.8077 11.1344 14.191 11.6088 14.5077 12.126L14.6861 12.4174C14.6904 12.4244 14.7034 12.4458 14.6872 12.4748C14.6709 12.5038 14.6459 12.5038 14.6377 12.5038H13.3373C13.1702 12.5038 13.0076 12.4351 12.8911 12.3153L11.5908 10.9783C11.2844 10.6632 10.8956 10.4468 10.4663 10.3526C10.2739 10.3103 10.0752 10.3569 9.92159 10.4805C9.76795 10.6041 9.67985 10.788 9.67985 10.9851V12.2987C9.67985 12.4118 9.58788 12.5038 9.47479 12.5038C8.46714 12.5038 7.47141 12.1666 6.671 11.5545C6.34855 11.3079 6.041 11.0358 5.75691 10.7461C5.62099 10.6075 5.39842 10.6052 5.25973 10.7412C5.12107 10.8771 5.11889 11.0997 5.2548 11.2383C5.56218 11.5519 5.89493 11.8461 6.24382 12.113C7.16614 12.8184 8.31357 13.2069 9.47475 13.2069C9.97552 13.2069 10.3829 12.7995 10.3829 12.2987V11.0558C10.6507 11.1273 10.8928 11.2691 11.0868 11.4685L12.3871 12.8055C12.6351 13.0606 12.9815 13.2069 13.3373 13.2069H14.6377C14.9124 13.2069 15.1664 13.0581 15.3006 12.8184C15.4348 12.5789 15.4291 12.2845 15.2857 12.0503Z" fill="#514947" stroke="#514947" stroke-width="0.5"/>
<path d="M4.92392 9.75754L4.92002 9.75209C4.80685 9.59431 4.58726 9.55807 4.42945 9.67123C4.27166 9.7844 4.23545 10.004 4.34859 10.1618C4.34873 10.162 4.35084 10.165 4.35098 10.1652L4.6382 9.96239L4.35249 10.1672C4.42115 10.263 4.52904 10.314 4.63852 10.314C4.70939 10.314 4.78101 10.2926 4.84306 10.2481C5.00084 10.1349 5.03705 9.91532 4.92392 9.75754Z" fill="#514947" stroke="#514947" stroke-width="0.5"/>
<path d="M7.20215 15.6093H4.33691C4.14278 15.6093 3.98535 15.7666 3.98535 15.9608C3.98535 16.155 4.14278 16.3124 4.33691 16.3124H7.20215C7.39632 16.3124 7.55371 16.155 7.55371 15.9608C7.55371 15.7666 7.39628 15.6093 7.20215 15.6093Z" fill="#514947" stroke="#514947" stroke-width="0.5"/>
<path d="M8.80204 15.6093H8.79785C8.60372 15.6093 8.44629 15.7666 8.44629 15.9608C8.44629 16.155 8.60372 16.3124 8.79785 16.3124H8.80204C8.9962 16.3124 9.1536 16.155 9.1536 15.9608C9.1536 15.7666 8.99617 15.6093 8.80204 15.6093Z" fill="#514947" stroke="#514947" stroke-width="0.5"/>
<path d="M15.6797 -0.00012207H2.32031C1.04087 -0.00012207 0 1.04075 0 2.32019V15.6796C0 16.959 1.04087 17.9999 2.32031 17.9999H15.6797C16.9591 17.9999 18 16.959 18 15.6796V2.32019C18 1.04075 16.9591 -0.00012207 15.6797 -0.00012207ZM17.2969 15.6796C17.2969 16.5713 16.5714 17.2968 15.6797 17.2968H2.32031C1.42861 17.2968 0.703125 16.5713 0.703125 15.6796V2.32019C0.703125 1.42849 1.42861 0.703003 2.32031 0.703003H15.6797C16.5714 0.703003 17.2969 1.42849 17.2969 2.32019V15.6796Z" fill="#514947" stroke="#514947" stroke-width="0.5"/>
</g>
<defs>
<clipPath id="clip0">
<rect width="18" height="18" fill="white" transform="translate(0 -0.00012207)"/>
</clipPath>
</defs>
</svg>
