<svg width="15" height="12" viewBox="0 0 15 12" fill="none" xmlns="http://www.w3.org/2000/svg">
<path d="M14.7546 1.5339L13.63 0.343161C13.4664 0.170023 13.2721 0.0834351 13.0471 0.0834351C12.8225 0.0834351 12.628 0.170023 12.4645 0.343161L5.85051 7.34621L3.16217 4.49954C2.99858 4.32629 2.8043 4.23981 2.57948 4.23981C2.35463 4.23981 2.16043 4.32629 1.9968 4.49954L0.872357 5.69012C0.708802 5.8633 0.626953 6.069 0.626953 6.3072C0.626953 6.54528 0.708802 6.7509 0.872357 6.92416L5.26798 11.5783C5.43157 11.7516 5.62584 11.8381 5.85066 11.8381C6.07547 11.8381 6.26972 11.7517 6.43334 11.5783L14.7545 2.76778C14.9179 2.59464 14.9999 2.3889 14.9999 2.15082C14.9999 1.91274 14.9181 1.70704 14.7546 1.5339Z" fill="#514947"/>
</svg>
