<svg width="18" height="18" viewBox="0 0 18 18" fill="none" xmlns="http://www.w3.org/2000/svg">
<g clip-path="url(#clip0)">
<path d="M9 13.1952C8.80583 13.1952 8.64844 13.3526 8.64844 13.5468C8.64844 13.5472 8.64844 13.5477 8.64844 13.5482C8.64844 13.5486 8.64844 13.5491 8.64844 13.5496V13.5524C8.64844 13.7465 8.80583 13.9039 9 13.9039C9.19417 13.9039 9.35156 13.7465 9.35156 13.5524C9.35156 13.5519 9.35156 13.5515 9.35156 13.551C9.35156 13.5505 9.35156 13.5501 9.35156 13.5496C9.35156 13.5491 9.35156 13.5486 9.35156 13.5482C9.35156 13.5477 9.35156 13.5472 9.35156 13.5468C9.35156 13.3526 9.19417 13.1952 9 13.1952Z" fill="#514947" stroke="#514947" stroke-width="0.5"/>
<path d="M14.5547 -0.00012207H3.44531C1.54554 -0.00012207 0 1.54542 0 3.44519V14.5546C0 16.4543 1.54554 17.9999 3.44531 17.9999H9C9.19417 17.9999 9.35156 17.8425 9.35156 17.6483V14.9237C9.35156 14.7295 9.19417 14.5721 9 14.5721C8.80583 14.5721 8.64844 14.7295 8.64844 14.9237V17.2968H3.44531C1.93328 17.2968 0.703125 16.0666 0.703125 14.5546V3.44519C0.703125 1.93316 1.93328 0.703003 3.44531 0.703003H14.5547C16.0667 0.703003 17.2969 1.93316 17.2969 3.44519V14.5546C17.2969 16.0666 16.0667 17.2968 14.5547 17.2968H12.3047V11.0917H14.3431C14.5236 11.0917 14.6748 10.955 14.6929 10.7753L14.9457 8.26325C14.9556 8.16435 14.9233 8.06592 14.8566 7.99223C14.79 7.91854 14.6952 7.8765 14.5959 7.8765H12.3047V6.5574C12.3047 6.31865 12.3807 6.22988 12.5853 6.22988H14.5801C14.7743 6.22988 14.9317 6.07249 14.9317 5.87832V3.42934C14.9317 3.23517 14.7743 3.07777 14.5801 3.07777H11.9604C10.476 3.07777 9.68875 3.72978 9.28976 4.27674C8.73172 5.04167 8.6484 5.94505 8.6484 6.41544V7.89225H6.92575C6.73158 7.89225 6.57418 8.04964 6.57418 8.24381V10.7401C6.57418 10.9343 6.73158 11.0917 6.92575 11.0917H8.6484V12.0936C8.6484 12.2878 8.8058 12.4452 8.99996 12.4452C9.19413 12.4452 9.35153 12.2878 9.35153 12.0936V10.7401C9.35153 10.5459 9.19413 10.3885 8.99996 10.3885H7.27731V8.59534H8.99996C9.19413 8.59534 9.35153 8.43794 9.35153 8.24377V6.4154C9.35153 5.62326 9.60574 3.78086 11.9604 3.78086H14.2285V5.52672H12.5853C12.1315 5.52672 11.6016 5.79665 11.6016 6.55736V8.22802C11.6016 8.42219 11.759 8.57959 11.9531 8.57959H14.2072L14.0251 10.3885H11.9531C11.759 10.3885 11.6016 10.5459 11.6016 10.7401V17.6483C11.6016 17.8425 11.759 17.9999 11.9531 17.9999H14.5547C16.4545 17.9999 18 16.4543 18 14.5546V3.44519C18 1.54542 16.4545 -0.00012207 14.5547 -0.00012207Z" fill="#514947" stroke="#514947" stroke-width="0.5"/>
<path d="M2.03906 3.60339C1.84489 3.60339 1.6875 3.76079 1.6875 3.95496V6.8905C1.6875 7.08467 1.84489 7.24207 2.03906 7.24207C2.23323 7.24207 2.39062 7.08467 2.39062 6.8905V3.95496C2.39062 3.76079 2.23323 3.60339 2.03906 3.60339Z" fill="#514947" stroke="#514947" stroke-width="0.5"/>
<path d="M2.03906 8.06409C1.84489 8.06409 1.6875 8.22148 1.6875 8.41565V8.4198C1.6875 8.61397 1.84489 8.77136 2.03906 8.77136C2.23323 8.77136 2.39062 8.61397 2.39062 8.4198V8.41565C2.39062 8.22148 2.23323 8.06409 2.03906 8.06409Z" fill="#514947" stroke="#514947" stroke-width="0.5"/>
</g>
<defs>
<clipPath id="clip0">
<rect width="18" height="18" fill="white" transform="translate(0 -0.00012207)"/>
</clipPath>
</defs>
</svg>
