<svg width="402" height="775" viewBox="0 0 402 775" fill="none" xmlns="http://www.w3.org/2000/svg">
<path opacity="0.1" d="M87.1644 630.972L402 387.344L67.435 605.107L87.1644 630.972ZM12.4222 486.422L402 387.344L5.53258 454.925L12.4222 486.422ZM125.162 670.811L402 387.344L101.883 647.763L125.162 670.811ZM2.29654 433.024L402 387.344L0 400.902L2.29654 433.024ZM30.1683 537.838L401.896 387.239L18.7899 507.697L30.1683 537.838ZM322.56 768.325L401.896 387.239L290.096 760.92L322.56 768.325ZM378.408 775L402 387.344L345.213 771.976L378.408 775ZM168.587 705.02L402 387.344L142.281 685.412L168.587 705.02ZM216.606 733.074L401.896 387.344L187.69 717.222L216.606 733.074ZM268.278 754.35L402 387.344L237.275 742.565L268.278 754.35ZM55.2215 586.334L401.896 387.344L39.5632 558.071L55.2215 586.334ZM142.699 92.4034L402 387.344L169.109 72.4835L142.699 92.4034ZM237.797 34.1038L402 387.344L268.8 22.0057L237.797 34.1038ZM188.212 60.0726L402 387.344L217.128 43.9072L188.212 60.0726ZM290.722 15.0182L402 387.344L323.187 7.19623L290.722 15.0182ZM0 378.687L402 387.239L2.40093 346.461L0 378.687ZM345.735 3.33734L401.896 387.344L378.93 0L345.735 3.33734ZM18.9987 271.683L402 387.344L30.4814 241.334L18.9987 271.683ZM5.63697 324.559L402 387.239L12.631 292.958L5.63697 324.559ZM39.8764 221.101L402 387.344L55.5347 192.525L39.8764 221.101ZM102.301 130.47L402 387.344L125.579 107.317L102.301 130.47ZM67.7481 173.752L402 387.344L87.4775 147.574L67.7481 173.752Z" fill="#C93E20"/>
</svg>
