<svg width="22" height="21" viewBox="0 0 22 21" fill="none" xmlns="http://www.w3.org/2000/svg">
<g clip-path="url(#clip0)">
<path d="M16.125 5.06359L7.6335 10.2935C7.15297 10.5901 6.92557 11.176 7.08039 11.718L7.99854 14.9441C8.07697 15.2191 8.32175 15.402 8.60339 15.402C8.61908 15.402 8.63492 15.4014 8.65081 15.4002C8.95189 15.3784 9.19014 15.1541 9.23018 14.8552L9.46891 13.0863C9.50109 12.8483 9.61578 12.6269 9.79156 12.4632L16.7989 5.94956C17.0106 5.75321 17.0386 5.43169 16.8641 5.20171C16.6893 4.97153 16.3718 4.912 16.125 5.06359ZM9.23127 11.861C8.9164 12.154 8.71126 12.5501 8.65367 12.9762L8.5379 13.8342L7.87143 11.4924C7.81727 11.3027 7.89703 11.0976 8.06519 10.9938L14.2858 7.16249L9.23127 11.861Z" fill="white" stroke="white" stroke-width="0.344118"/>
<path d="M20.8995 1.65451C20.6342 1.42965 20.2681 1.36775 19.9439 1.49301L1.19651 8.7252C0.825226 8.8684 0.586495 9.21799 0.58839 9.61581C0.590326 10.014 0.832566 10.3616 1.20603 10.5016L5.58506 12.136L7.29324 17.6294C7.38704 17.9314 7.62379 18.1661 7.92648 18.2571C8.22901 18.3481 8.55573 18.2831 8.79995 18.0833L11.3462 16.0076C11.4684 15.9079 11.643 15.903 11.7707 15.9957L16.3632 19.3299C16.5284 19.45 16.7234 19.5118 16.9206 19.5118C17.0361 19.5118 17.1525 19.4906 17.2641 19.4475C17.566 19.3307 17.7855 19.072 17.8512 18.7554L21.2156 2.57206C21.2863 2.2313 21.1652 1.87974 20.8995 1.65451ZM20.4102 2.4049L17.0459 18.5882C17.0337 18.6466 16.9916 18.671 16.9676 18.6803C16.9434 18.6896 16.8956 18.7 16.8467 18.6644L12.2541 15.33C12.0488 15.181 11.8074 15.107 11.5664 15.107C11.3036 15.107 11.0411 15.1951 10.8265 15.3699L8.27978 17.4461C8.23446 17.4832 8.18739 17.4766 8.16344 17.4694C8.13932 17.4621 8.0963 17.4415 8.07879 17.3852L6.31069 11.699C6.2729 11.5775 6.18096 11.4803 6.06176 11.4358L1.4942 9.73106C1.42581 9.70546 1.41125 9.6521 1.41105 9.61182C1.41084 9.57189 1.42488 9.51879 1.49263 9.49265L20.24 2.2605C20.2401 2.26046 20.2402 2.26042 20.2404 2.26038C20.3012 2.23686 20.3463 2.26388 20.3677 2.28203C20.3893 2.30038 20.4236 2.34071 20.4102 2.4049Z" fill="white" stroke="white" stroke-width="0.344118"/>
<path d="M17.8273 10.3146C17.6052 10.2664 17.3863 10.4073 17.3381 10.6293L17.2756 10.9173C17.2274 11.1393 17.3683 11.3583 17.5903 11.4065C17.6197 11.4128 17.649 11.4159 17.6779 11.4159C17.8673 11.4159 18.0376 11.2844 18.0795 11.0918L18.142 10.8039C18.1902 10.5819 18.0492 10.3629 17.8273 10.3146Z" fill="white" stroke="white" stroke-width="0.344118"/>
<path d="M17.4159 12.2096C17.1936 12.1615 16.9748 12.3024 16.9266 12.5243L15.9806 16.8816C15.9324 17.1036 16.0733 17.3227 16.2953 17.3708C16.3247 17.3772 16.3541 17.3803 16.383 17.3803C16.5723 17.3803 16.7427 17.2487 16.7845 17.0562L17.7306 12.6988C17.7787 12.4768 17.6378 12.2578 17.4159 12.2096Z" fill="white" stroke="white" stroke-width="0.344118"/>
</g>
<defs>
<clipPath id="clip0">
<rect width="20.6471" height="20.6471" fill="white" transform="translate(0.588379 0.146973)"/>
</clipPath>
</defs>
</svg>
