<svg width="18" height="18" viewBox="0 0 18 18" fill="none" xmlns="http://www.w3.org/2000/svg">
<g clip-path="url(#clip0)">
<path d="M13.5447 4.28615L6.14186 8.84556C5.72294 9.10417 5.5247 9.61496 5.65966 10.0874L6.4601 12.8999C6.52848 13.1397 6.74188 13.2991 6.98741 13.2991C7.00108 13.2991 7.0149 13.2986 7.02875 13.2976C7.29123 13.2785 7.49893 13.083 7.53384 12.8224L7.74196 11.2803C7.77002 11.0728 7.87 10.8798 8.02325 10.7371L14.1322 5.05853C14.3168 4.88736 14.3412 4.60705 14.189 4.40656C14.0367 4.20589 13.7598 4.154 13.5447 4.28615ZM7.53479 10.2121C7.26029 10.4676 7.08145 10.8128 7.03125 11.1843L6.93031 11.9324L6.34929 9.89076C6.30207 9.72538 6.37161 9.54654 6.51821 9.45605L11.9413 6.11596L7.53479 10.2121Z" fill="#514947" stroke="#514947" stroke-width="0.3"/>
<path d="M17.7072 1.3141C17.4759 1.11807 17.1567 1.06411 16.874 1.1733L0.530166 7.4783C0.206482 7.60314 -0.00164258 7.90791 9.76697e-06 8.25472C0.00169727 8.60185 0.212881 8.90494 0.538463 9.02693L4.35608 10.4518L5.84526 15.2409C5.92704 15.5042 6.13344 15.7088 6.39732 15.7882C6.66106 15.8675 6.9459 15.8108 7.15881 15.6367L9.37857 13.8271C9.48516 13.7402 9.63739 13.7359 9.7487 13.8167L13.7524 16.7234C13.8964 16.8281 14.0664 16.882 14.2384 16.882C14.3391 16.882 14.4405 16.8635 14.5378 16.8259C14.801 16.7241 14.9924 16.4985 15.0497 16.2225L17.9827 2.11401C18.0443 1.81694 17.9387 1.51045 17.7072 1.3141ZM17.2806 1.96829L14.3476 16.0768C14.3369 16.1278 14.3002 16.149 14.2793 16.1571C14.2582 16.1652 14.2165 16.1743 14.1739 16.1433L10.1701 13.2364C9.9911 13.1064 9.78065 13.0419 9.57059 13.0419C9.34145 13.0419 9.11261 13.1187 8.92558 13.2711L6.70533 15.0811C6.66581 15.1135 6.62478 15.1077 6.6039 15.1014C6.58288 15.0951 6.54536 15.0771 6.53011 15.0281L4.98868 10.0708C4.95574 9.9649 4.87558 9.88017 4.77166 9.84136L0.789689 8.3552C0.730064 8.33287 0.717373 8.28636 0.717197 8.25124C0.717021 8.21644 0.729256 8.17014 0.788318 8.14735L17.1322 1.8424C17.1323 1.84236 17.1324 1.84233 17.1325 1.84229C17.1856 1.82179 17.2248 1.84535 17.2436 1.86117C17.2623 1.87717 17.2922 1.91232 17.2806 1.96829Z" fill="#514947" stroke="#514947" stroke-width="0.3"/>
<path d="M15.0288 8.8642C14.8352 8.82216 14.6443 8.94503 14.6023 9.13856L14.5478 9.38957C14.5058 9.58311 14.6286 9.77404 14.8221 9.81605C14.8478 9.82161 14.8733 9.82428 14.8986 9.82428C15.0636 9.82428 15.2122 9.7096 15.2487 9.54173L15.3031 9.29072C15.3451 9.09718 15.2223 8.90625 15.0288 8.8642Z" fill="#514947" stroke="#514947" stroke-width="0.3"/>
<path d="M14.6701 10.5159C14.4763 10.4739 14.2856 10.5968 14.2436 10.7903L13.4189 14.589C13.3769 14.7825 13.4997 14.9734 13.6932 15.0154C13.7189 15.021 13.7444 15.0237 13.7696 15.0237C13.9347 15.0237 14.0832 14.909 14.1197 14.7411L14.9444 10.9424C14.9865 10.7489 14.8636 10.5579 14.6701 10.5159Z" fill="#514947" stroke="#514947" stroke-width="0.3"/>
</g>
<defs>
<clipPath id="clip0">
<rect width="18" height="18" fill="white" transform="translate(0 -0.00012207)"/>
</clipPath>
</defs>
</svg>
