<svg width="21" height="21" viewBox="0 0 21 21" fill="none" xmlns="http://www.w3.org/2000/svg">
<g clip-path="url(#clip0)">
<path d="M17.7103 13.9695L17.5057 13.6352C17.1058 12.9821 16.6218 12.3831 16.0673 11.855L15.3831 11.2036C15.3181 11.1417 15.3084 11.0433 15.36 10.9698L16.2941 9.63873C16.4288 9.44678 16.5531 9.24462 16.6636 9.03791L17.4618 7.54435C17.6009 7.28408 17.5935 6.97748 17.4419 6.72423C17.2903 6.47102 17.0236 6.3196 16.7285 6.31927L15.0007 6.3173C15.0003 6.3173 15 6.3173 14.9996 6.3173C14.6377 6.3173 14.3099 6.53139 14.1644 6.86287L13.9814 7.27985C13.5145 8.34369 12.8772 9.3137 12.0865 10.1642V7.12007C12.0865 6.67721 11.7262 6.31689 11.2834 6.31689H8.83637C8.43456 6.31689 8.10771 6.64378 8.10771 7.04559C8.10771 7.19903 8.15501 7.34602 8.24446 7.47055L8.41568 7.70908C8.58356 7.94285 8.67228 8.21856 8.67228 8.50641V10.7308C8.37052 10.3803 8.0031 9.90436 7.69207 9.35717C7.21577 8.51919 6.87437 7.54205 6.71327 7.03414C6.57717 6.60515 6.18342 6.31689 5.73342 6.31689H3.9835C3.73654 6.31689 3.50943 6.42981 3.36022 6.62668C3.21113 6.82359 3.16399 7.07289 3.23097 7.3107L3.55741 8.46927C3.75747 9.17946 4.0325 9.87081 4.37483 10.5242C4.47814 10.7214 4.72179 10.7976 4.91915 10.6942C5.11647 10.5909 5.19256 10.3471 5.08921 10.1499C4.77285 9.54598 4.51867 8.90697 4.33373 8.25058L4.01617 7.12342H5.73346C5.83036 7.12342 5.91517 7.18552 5.94449 7.27799C6.11519 7.81606 6.47813 8.85354 6.99096 9.75568C7.41172 10.4959 7.92221 11.1126 8.27644 11.4995C8.47049 11.7115 8.76906 11.7813 9.03707 11.6771C9.3054 11.5729 9.47881 11.3195 9.47881 11.0317V8.50641C9.47881 8.04875 9.3377 7.61036 9.07086 7.23867L8.98807 7.12342H11.28V10.3574C11.28 10.594 11.3988 10.8115 11.5978 10.9395C11.7968 11.0674 12.044 11.0851 12.2593 10.9868L12.4256 10.9109C12.5022 10.876 12.5702 10.8273 12.6279 10.766C13.5031 9.83665 14.2069 8.77277 14.72 7.60391L14.903 7.18693C14.9198 7.14854 14.9577 7.12378 14.9996 7.12378H14.9998L16.7275 7.12576C16.7334 7.12576 16.7423 7.1258 16.7499 7.13846C16.7575 7.15116 16.7533 7.15899 16.7506 7.16419L15.9523 8.65771C15.8571 8.83584 15.75 9.01 15.6339 9.17542L14.6998 10.5065C14.417 10.9095 14.4706 11.4483 14.827 11.7877L15.5111 12.4391C16.0149 12.9189 16.4546 13.463 16.8179 14.0564L17.0225 14.3906C17.0274 14.3986 17.0424 14.4231 17.0238 14.4564C17.0051 14.4897 16.9764 14.4897 16.967 14.4897H15.4754C15.2837 14.4897 15.0972 14.4109 14.9636 14.2735L13.4721 12.7399C13.1206 12.3785 12.6745 12.1303 12.1821 12.0222C11.9614 11.9737 11.7336 12.0271 11.5573 12.1688C11.3811 12.3106 11.2801 12.5215 11.2801 12.7476V14.2545C11.2801 14.3842 11.1746 14.4897 11.0448 14.4897C9.889 14.4897 8.74684 14.103 7.82873 13.4008C7.45886 13.1179 7.10609 12.8059 6.78021 12.4735C6.62431 12.3145 6.369 12.3119 6.20992 12.4679C6.05087 12.6238 6.04837 12.8792 6.20427 13.0382C6.55684 13.3978 6.93853 13.7353 7.33873 14.0414C8.39669 14.8506 9.71286 15.2962 11.0448 15.2962C11.6192 15.2962 12.0865 14.8289 12.0865 14.2545V12.8288C12.3936 12.9108 12.6714 13.0734 12.8939 13.3022L14.3854 14.8358C14.6699 15.1284 15.0672 15.2962 15.4754 15.2962H16.967C17.2821 15.2962 17.5735 15.1255 17.7274 14.8506C17.8814 14.5758 17.8748 14.2381 17.7103 13.9695Z" fill="white" stroke="white" stroke-width="0.573529"/>
<path d="M5.82437 11.3396L5.81989 11.3334C5.69008 11.1524 5.4382 11.1108 5.25718 11.2406C5.07619 11.3704 5.03466 11.6223 5.16443 11.8033C5.16459 11.8036 5.16701 11.807 5.16717 11.8072L5.49663 11.5746L5.1689 11.8096C5.24766 11.9194 5.37142 11.9779 5.497 11.9779C5.57829 11.9779 5.66044 11.9533 5.73161 11.9023C5.9126 11.7725 5.95414 11.5206 5.82437 11.3396Z" fill="white" stroke="white" stroke-width="0.573529"/>
<path d="M8.4379 18.0518H5.15131C4.92863 18.0518 4.74805 18.2323 4.74805 18.455C4.74805 18.6777 4.92863 18.8583 5.15131 18.8583H8.4379C8.66062 18.8583 8.84117 18.6777 8.84117 18.455C8.84117 18.2323 8.66058 18.0518 8.4379 18.0518Z" fill="white" stroke="white" stroke-width="0.573529"/>
<path d="M10.2728 18.0518H10.268C10.0453 18.0518 9.86475 18.2323 9.86475 18.455C9.86475 18.6777 10.0453 18.8583 10.268 18.8583H10.2728C10.4955 18.8583 10.6761 18.6777 10.6761 18.455C10.6761 18.2323 10.4955 18.0518 10.2728 18.0518Z" fill="white" stroke="white" stroke-width="0.573529"/>
<path d="M18.1618 0.146973H2.8378C1.37021 0.146973 0.17627 1.34091 0.17627 2.80851V18.1325C0.17627 19.6001 1.37021 20.794 2.8378 20.794H18.1618C19.6294 20.794 20.8233 19.6001 20.8233 18.1325V2.80851C20.8233 1.34091 19.6294 0.146973 18.1618 0.146973ZM20.0168 18.1325C20.0168 19.1553 19.1846 19.9875 18.1618 19.9875H2.8378C1.81497 19.9875 0.982795 19.1553 0.982795 18.1325V2.80851C0.982795 1.78567 1.81497 0.953498 2.8378 0.953498H18.1618C19.1846 0.953498 20.0168 1.78567 20.0168 2.80851V18.1325Z" fill="white" stroke="white" stroke-width="0.573529"/>
</g>
<defs>
<clipPath id="clip0">
<rect width="20.6471" height="20.6471" fill="white" transform="translate(0.17627 0.146973)"/>
</clipPath>
</defs>
</svg>
